<mxfile host="Electron" modified="2023-11-20T07:21:58.377Z" agent="Mozilla/5.0 (Windows NT 10.0; Win64; x64) AppleWebKit/537.36 (KHTML, like Gecko) draw.io/22.1.2 Chrome/114.0.5735.289 Electron/25.9.4 Safari/537.36" etag="jRzyQTDB3FMHB8j1vAx3" version="22.1.2" type="device" pages="10">
  <diagram name="第 1 页" id="82gVRnbffXgMGGm_xm2G">
    <mxGraphModel dx="1863" dy="623" grid="1" gridSize="10" guides="1" tooltips="1" connect="1" arrows="1" fold="1" page="1" pageScale="1" pageWidth="827" pageHeight="1169" math="0" shadow="0">
      <root>
        <mxCell id="0" />
        <mxCell id="1" parent="0" />
        <mxCell id="06FVIsJlmWont9KGnBh9-9" value="HelpWalkPath" style="rounded=0;whiteSpace=wrap;html=1;strokeColor=#FFFFFF;fontColor=#FFFFFF;fillColor=#182E3E;" parent="1" vertex="1">
          <mxGeometry x="30" y="90" width="120" height="60" as="geometry" />
        </mxCell>
        <mxCell id="06FVIsJlmWont9KGnBh9-10" value="HelpSplitFileName" style="rounded=0;whiteSpace=wrap;html=1;strokeColor=#FFFFFF;fontColor=#FFFFFF;fillColor=#182E3E;" parent="1" vertex="1">
          <mxGeometry x="230" y="90" width="120" height="60" as="geometry" />
        </mxCell>
        <mxCell id="06FVIsJlmWont9KGnBh9-24" value="" style="html=1;points=[];perimeter=orthogonalPerimeter;fillColor=strokeColor;strokeColor=#9999FF;fontColor=#6666FF;labelBackgroundColor=#6666FF;" parent="1" vertex="1">
          <mxGeometry x="87.5" y="150" width="5" height="450" as="geometry" />
        </mxCell>
        <mxCell id="06FVIsJlmWont9KGnBh9-25" value="" style="html=1;points=[];perimeter=orthogonalPerimeter;fillColor=strokeColor;strokeColor=#9999FF;fontColor=#6666FF;labelBackgroundColor=#6666FF;" parent="1" vertex="1">
          <mxGeometry x="287.5" y="150" width="5" height="450" as="geometry" />
        </mxCell>
        <mxCell id="06FVIsJlmWont9KGnBh9-26" value="" style="endArrow=open;startArrow=none;endFill=0;startFill=0;endSize=8;html=1;verticalAlign=bottom;labelBackgroundColor=none;strokeWidth=2;rounded=0;strokeColor=#9933FF;entryX=0.34;entryY=0.114;entryDx=0;entryDy=0;entryPerimeter=0;" parent="1" target="06FVIsJlmWont9KGnBh9-25" edge="1">
          <mxGeometry width="160" relative="1" as="geometry">
            <mxPoint x="87.5" y="200" as="sourcePoint" />
            <mxPoint x="247.5" y="200" as="targetPoint" />
          </mxGeometry>
        </mxCell>
        <mxCell id="06FVIsJlmWont9KGnBh9-27" value="&lt;b style=&quot;border-color: var(--border-color); color: rgb(102, 102, 255);&quot;&gt;从路径中提取下一级文件名&lt;/b&gt;" style="edgeLabel;html=1;align=center;verticalAlign=middle;resizable=0;points=[];fontColor=#FFFFFF;" parent="06FVIsJlmWont9KGnBh9-26" vertex="1" connectable="0">
          <mxGeometry x="0.1311" y="-1" relative="1" as="geometry">
            <mxPoint x="-14" as="offset" />
          </mxGeometry>
        </mxCell>
        <mxCell id="06FVIsJlmWont9KGnBh9-28" value="HelpFindFile" style="rounded=0;whiteSpace=wrap;html=1;strokeColor=#FFFFFF;fontColor=#FFFFFF;fillColor=#182E3E;" parent="1" vertex="1">
          <mxGeometry x="414" y="90" width="120" height="60" as="geometry" />
        </mxCell>
        <mxCell id="06FVIsJlmWont9KGnBh9-29" value="" style="html=1;points=[];perimeter=orthogonalPerimeter;fillColor=strokeColor;strokeColor=#9999FF;fontColor=#6666FF;labelBackgroundColor=#6666FF;" parent="1" vertex="1">
          <mxGeometry x="471.5" y="150" width="5" height="450" as="geometry" />
        </mxCell>
        <mxCell id="06FVIsJlmWont9KGnBh9-31" value="" style="endArrow=open;startArrow=none;endFill=0;startFill=0;endSize=8;html=1;verticalAlign=bottom;labelBackgroundColor=none;strokeWidth=2;rounded=0;strokeColor=#9933FF;" parent="1" edge="1">
          <mxGeometry width="160" relative="1" as="geometry">
            <mxPoint x="87.5" y="260" as="sourcePoint" />
            <mxPoint x="470" y="261" as="targetPoint" />
          </mxGeometry>
        </mxCell>
        <mxCell id="06FVIsJlmWont9KGnBh9-32" value="&lt;font color=&quot;#6666ff&quot;&gt;&lt;b&gt;从当前startInodeNum指向的目录出发，寻找文件对应的Inode号&lt;/b&gt;&lt;/font&gt;" style="edgeLabel;html=1;align=center;verticalAlign=middle;resizable=0;points=[];fontColor=#FFFFFF;" parent="06FVIsJlmWont9KGnBh9-31" vertex="1" connectable="0">
          <mxGeometry x="0.1311" y="-1" relative="1" as="geometry">
            <mxPoint x="-14" as="offset" />
          </mxGeometry>
        </mxCell>
        <mxCell id="06FVIsJlmWont9KGnBh9-33" value="HelpGenFileObjHeadChecksum" style="rounded=0;whiteSpace=wrap;html=1;strokeColor=#FFFFFF;fontColor=#FFFFFF;fillColor=#182E3E;" parent="1" vertex="1">
          <mxGeometry x="580" y="90" width="180" height="60" as="geometry" />
        </mxCell>
        <mxCell id="06FVIsJlmWont9KGnBh9-34" value="" style="html=1;points=[];perimeter=orthogonalPerimeter;fillColor=strokeColor;strokeColor=#9999FF;fontColor=#6666FF;labelBackgroundColor=#6666FF;" parent="1" vertex="1">
          <mxGeometry x="667.5" y="150" width="5" height="450" as="geometry" />
        </mxCell>
        <mxCell id="06FVIsJlmWont9KGnBh9-35" value="" style="endArrow=open;startArrow=none;endFill=0;startFill=0;endSize=8;html=1;verticalAlign=bottom;labelBackgroundColor=none;strokeWidth=2;rounded=0;strokeColor=#9933FF;" parent="1" edge="1">
          <mxGeometry width="160" relative="1" as="geometry">
            <mxPoint x="476.5" y="290" as="sourcePoint" />
            <mxPoint x="670" y="291" as="targetPoint" />
          </mxGeometry>
        </mxCell>
        <mxCell id="06FVIsJlmWont9KGnBh9-36" value="&lt;b style=&quot;border-color: var(--border-color); color: rgb(102, 102, 255);&quot;&gt;判断文件是普通文件还是目录&lt;/b&gt;" style="edgeLabel;html=1;align=center;verticalAlign=middle;resizable=0;points=[];fontColor=#FFFFFF;" parent="06FVIsJlmWont9KGnBh9-35" vertex="1" connectable="0">
          <mxGeometry x="0.1311" y="-1" relative="1" as="geometry">
            <mxPoint x="-14" as="offset" />
          </mxGeometry>
        </mxCell>
        <mxCell id="06FVIsJlmWont9KGnBh9-38" value="" style="endArrow=none;startArrow=none;endFill=0;startFill=0;endSize=8;html=1;verticalAlign=bottom;labelBackgroundColor=none;strokeWidth=2;rounded=0;strokeColor=#B266FF;" parent="1" edge="1">
          <mxGeometry width="160" relative="1" as="geometry">
            <mxPoint x="471.5" y="350" as="sourcePoint" />
            <mxPoint x="540" y="350" as="targetPoint" />
          </mxGeometry>
        </mxCell>
        <mxCell id="06FVIsJlmWont9KGnBh9-41" value="&lt;font color=&quot;#b266ff&quot; style=&quot;font-size: 11px;&quot;&gt;若是目录则向下获取该目录中的文件&lt;br&gt;（仅向下一次）&lt;br&gt;&lt;/font&gt;" style="edgeLabel;html=1;align=center;verticalAlign=middle;resizable=0;points=[];fontColor=#FFFFFF;fontSize=11;fontStyle=1" parent="06FVIsJlmWont9KGnBh9-38" vertex="1" connectable="0">
          <mxGeometry x="0.165" y="-1" relative="1" as="geometry">
            <mxPoint x="59" y="69" as="offset" />
          </mxGeometry>
        </mxCell>
        <mxCell id="06FVIsJlmWont9KGnBh9-39" value="" style="endArrow=none;startArrow=none;endFill=0;startFill=0;endSize=8;html=1;verticalAlign=bottom;labelBackgroundColor=none;strokeWidth=2;rounded=0;strokeColor=#B266FF;" parent="1" edge="1">
          <mxGeometry width="160" relative="1" as="geometry">
            <mxPoint x="540" y="350" as="sourcePoint" />
            <mxPoint x="540.5" y="400" as="targetPoint" />
          </mxGeometry>
        </mxCell>
        <mxCell id="06FVIsJlmWont9KGnBh9-40" value="" style="endArrow=open;startArrow=none;endFill=0;startFill=0;endSize=8;html=1;verticalAlign=bottom;labelBackgroundColor=none;strokeWidth=2;rounded=0;strokeColor=#B266FF;entryX=0.58;entryY=0.555;entryDx=0;entryDy=0;entryPerimeter=0;" parent="1" target="06FVIsJlmWont9KGnBh9-29" edge="1">
          <mxGeometry width="160" relative="1" as="geometry">
            <mxPoint x="540" y="400" as="sourcePoint" />
            <mxPoint x="490" y="400" as="targetPoint" />
          </mxGeometry>
        </mxCell>
        <mxCell id="06FVIsJlmWont9KGnBh9-42" value="" style="endArrow=open;startArrow=none;endFill=0;startFill=0;endSize=8;html=1;verticalAlign=bottom;labelBackgroundColor=none;strokeWidth=2;rounded=0;strokeColor=#9933FF;entryX=0.42;entryY=0.4;entryDx=0;entryDy=0;entryPerimeter=0;" parent="1" target="06FVIsJlmWont9KGnBh9-29" edge="1">
          <mxGeometry width="160" relative="1" as="geometry">
            <mxPoint x="667.5" y="330" as="sourcePoint" />
            <mxPoint x="500" y="330" as="targetPoint" />
          </mxGeometry>
        </mxCell>
        <mxCell id="06FVIsJlmWont9KGnBh9-43" value="&lt;b style=&quot;border-color: var(--border-color); color: rgb(102, 102, 255);&quot;&gt;返回校验和&lt;/b&gt;" style="edgeLabel;html=1;align=center;verticalAlign=middle;resizable=0;points=[];fontColor=#FFFFFF;" parent="06FVIsJlmWont9KGnBh9-42" vertex="1" connectable="0">
          <mxGeometry x="0.1311" y="-1" relative="1" as="geometry">
            <mxPoint x="15" as="offset" />
          </mxGeometry>
        </mxCell>
        <mxCell id="06FVIsJlmWont9KGnBh9-44" value="" style="endArrow=open;startArrow=none;endFill=0;startFill=0;endSize=8;html=1;verticalAlign=bottom;labelBackgroundColor=none;strokeWidth=2;rounded=0;strokeColor=#9933FF;entryX=0.42;entryY=0.667;entryDx=0;entryDy=0;entryPerimeter=0;" parent="1" target="06FVIsJlmWont9KGnBh9-24" edge="1">
          <mxGeometry width="160" relative="1" as="geometry">
            <mxPoint x="471.5" y="450" as="sourcePoint" />
            <mxPoint x="278" y="450" as="targetPoint" />
          </mxGeometry>
        </mxCell>
        <mxCell id="06FVIsJlmWont9KGnBh9-45" value="&lt;b style=&quot;border-color: var(--border-color); color: rgb(102, 102, 255);&quot;&gt;返回文件对应的Inode号&lt;/b&gt;" style="edgeLabel;html=1;align=center;verticalAlign=middle;resizable=0;points=[];fontColor=#FFFFFF;" parent="06FVIsJlmWont9KGnBh9-44" vertex="1" connectable="0">
          <mxGeometry x="0.1311" y="-1" relative="1" as="geometry">
            <mxPoint x="15" as="offset" />
          </mxGeometry>
        </mxCell>
        <mxCell id="06FVIsJlmWont9KGnBh9-46" value="IsReachPathEnd" style="rounded=0;whiteSpace=wrap;html=1;strokeColor=#FFFFFF;fontColor=#FFFFFF;fillColor=#182E3E;" parent="1" vertex="1">
          <mxGeometry x="810" y="90" width="120" height="60" as="geometry" />
        </mxCell>
        <mxCell id="06FVIsJlmWont9KGnBh9-47" value="" style="html=1;points=[];perimeter=orthogonalPerimeter;fillColor=strokeColor;strokeColor=#9999FF;fontColor=#6666FF;labelBackgroundColor=#6666FF;" parent="1" vertex="1">
          <mxGeometry x="867.5" y="150" width="5" height="450" as="geometry" />
        </mxCell>
        <mxCell id="06FVIsJlmWont9KGnBh9-48" value="相关文件操作接口" style="rounded=0;whiteSpace=wrap;html=1;strokeColor=#FFFFFF;fontColor=#FFFFFF;fillColor=#182E3E;" parent="1" vertex="1">
          <mxGeometry x="-150" y="90" width="120" height="60" as="geometry" />
        </mxCell>
        <mxCell id="06FVIsJlmWont9KGnBh9-49" value="" style="html=1;points=[];perimeter=orthogonalPerimeter;fillColor=strokeColor;strokeColor=#9999FF;fontColor=#6666FF;labelBackgroundColor=#6666FF;" parent="1" vertex="1">
          <mxGeometry x="-92.5" y="150" width="5" height="450" as="geometry" />
        </mxCell>
        <mxCell id="06FVIsJlmWont9KGnBh9-51" style="edgeStyle=orthogonalEdgeStyle;rounded=0;orthogonalLoop=1;jettySize=auto;html=1;exitX=0.5;exitY=0.5;exitDx=0;exitDy=0;exitPerimeter=0;entryX=0;entryY=0.5;entryDx=0;entryDy=0;strokeColor=#B266FF;strokeWidth=2;" parent="1" source="06FVIsJlmWont9KGnBh9-50" target="06FVIsJlmWont9KGnBh9-48" edge="1">
          <mxGeometry relative="1" as="geometry" />
        </mxCell>
        <mxCell id="06FVIsJlmWont9KGnBh9-50" value="Actor" style="shape=umlActor;verticalLabelPosition=bottom;verticalAlign=top;html=1;strokeColor=#B266FF;fontColor=#FFFFFF;fillColor=#182E3E;" parent="1" vertex="1">
          <mxGeometry x="-240" y="90" width="30" height="60" as="geometry" />
        </mxCell>
        <mxCell id="06FVIsJlmWont9KGnBh9-52" value="" style="endArrow=open;startArrow=none;endFill=0;startFill=0;endSize=8;html=1;verticalAlign=bottom;labelBackgroundColor=none;strokeWidth=2;rounded=0;strokeColor=#9933FF;entryX=0.34;entryY=0.114;entryDx=0;entryDy=0;entryPerimeter=0;" parent="1" edge="1">
          <mxGeometry width="160" relative="1" as="geometry">
            <mxPoint x="-89.8" y="180" as="sourcePoint" />
            <mxPoint x="92.50000000000001" y="181" as="targetPoint" />
          </mxGeometry>
        </mxCell>
        <mxCell id="06FVIsJlmWont9KGnBh9-53" value="&lt;b style=&quot;border-color: var(--border-color); color: rgb(102, 102, 255);&quot;&gt;调用&lt;/b&gt;" style="edgeLabel;html=1;align=center;verticalAlign=middle;resizable=0;points=[];fontColor=#FFFFFF;" parent="06FVIsJlmWont9KGnBh9-52" vertex="1" connectable="0">
          <mxGeometry x="0.1311" y="-1" relative="1" as="geometry">
            <mxPoint x="-14" as="offset" />
          </mxGeometry>
        </mxCell>
        <mxCell id="06FVIsJlmWont9KGnBh9-54" value="" style="endArrow=open;startArrow=none;endFill=0;startFill=0;endSize=8;html=1;verticalAlign=bottom;labelBackgroundColor=none;strokeWidth=2;rounded=0;strokeColor=#9933FF;entryX=0.42;entryY=0.667;entryDx=0;entryDy=0;entryPerimeter=0;exitX=0.7;exitY=0.797;exitDx=0;exitDy=0;exitPerimeter=0;" parent="1" edge="1">
          <mxGeometry width="160" relative="1" as="geometry">
            <mxPoint x="92.5" y="490.0000000000001" as="sourcePoint" />
            <mxPoint x="-87.5" y="491.35" as="targetPoint" />
          </mxGeometry>
        </mxCell>
        <mxCell id="06FVIsJlmWont9KGnBh9-55" value="&lt;b style=&quot;border-color: var(--border-color); color: rgb(102, 102, 255);&quot;&gt;返回文件对应的Inode号&lt;br&gt;若找不到，返回-ENOENT&lt;br&gt;&lt;/b&gt;" style="edgeLabel;html=1;align=center;verticalAlign=middle;resizable=0;points=[];fontColor=#FFFFFF;" parent="06FVIsJlmWont9KGnBh9-54" vertex="1" connectable="0">
          <mxGeometry x="0.1311" y="-1" relative="1" as="geometry">
            <mxPoint x="15" as="offset" />
          </mxGeometry>
        </mxCell>
        <mxCell id="06FVIsJlmWont9KGnBh9-56" value="" style="endArrow=open;startArrow=none;endFill=0;startFill=0;endSize=8;html=1;verticalAlign=bottom;labelBackgroundColor=none;strokeWidth=2;rounded=0;strokeColor=#9933FF;entryX=0.5;entryY=0.844;entryDx=0;entryDy=0;entryPerimeter=0;" parent="1" target="06FVIsJlmWont9KGnBh9-47" edge="1">
          <mxGeometry width="160" relative="1" as="geometry">
            <mxPoint x="-92.5" y="530" as="sourcePoint" />
            <mxPoint x="89.80000000000001" y="531" as="targetPoint" />
          </mxGeometry>
        </mxCell>
        <mxCell id="06FVIsJlmWont9KGnBh9-57" value="&lt;b style=&quot;border-color: var(--border-color); color: rgb(102, 102, 255);&quot;&gt;判断是否遍历完成&lt;/b&gt;" style="edgeLabel;html=1;align=center;verticalAlign=middle;resizable=0;points=[];fontColor=#FFFFFF;" parent="06FVIsJlmWont9KGnBh9-56" vertex="1" connectable="0">
          <mxGeometry x="0.1311" y="-1" relative="1" as="geometry">
            <mxPoint x="-71" as="offset" />
          </mxGeometry>
        </mxCell>
        <mxCell id="06FVIsJlmWont9KGnBh9-60" value="" style="endArrow=open;startArrow=none;endFill=0;startFill=0;endSize=8;html=1;verticalAlign=bottom;labelBackgroundColor=none;strokeWidth=2;rounded=0;strokeColor=#9933FF;" parent="1" edge="1">
          <mxGeometry width="160" relative="1" as="geometry">
            <mxPoint x="20" y="560" as="sourcePoint" />
            <mxPoint x="20" y="691" as="targetPoint" />
          </mxGeometry>
        </mxCell>
        <mxCell id="06FVIsJlmWont9KGnBh9-61" value="&lt;font color=&quot;#6666ff&quot;&gt;&lt;b&gt;遍历完成&lt;/b&gt;&lt;/font&gt;" style="edgeLabel;html=1;align=center;verticalAlign=middle;resizable=0;points=[];fontColor=#FFFFFF;" parent="06FVIsJlmWont9KGnBh9-60" vertex="1" connectable="0">
          <mxGeometry x="0.1311" y="-1" relative="1" as="geometry">
            <mxPoint x="1" as="offset" />
          </mxGeometry>
        </mxCell>
        <mxCell id="06FVIsJlmWont9KGnBh9-62" value="" style="endArrow=open;startArrow=none;endFill=0;startFill=0;endSize=8;html=1;verticalAlign=bottom;labelBackgroundColor=none;strokeWidth=2;rounded=0;strokeColor=#9933FF;entryX=0.22;entryY=0.027;entryDx=0;entryDy=0;entryPerimeter=0;" parent="1" target="06FVIsJlmWont9KGnBh9-49" edge="1">
          <mxGeometry width="160" relative="1" as="geometry">
            <mxPoint x="-40" y="560" as="sourcePoint" />
            <mxPoint x="-130" y="160" as="targetPoint" />
            <Array as="points">
              <mxPoint x="-40" y="630" />
              <mxPoint x="-160" y="630" />
              <mxPoint x="-270" y="630" />
              <mxPoint x="-270" y="530" />
              <mxPoint x="-270" y="160" />
            </Array>
          </mxGeometry>
        </mxCell>
        <mxCell id="06FVIsJlmWont9KGnBh9-63" value="&lt;font color=&quot;#6666ff&quot;&gt;&lt;b&gt;遍历未完成&lt;/b&gt;&lt;/font&gt;" style="edgeLabel;html=1;align=center;verticalAlign=middle;resizable=0;points=[];fontColor=#FFFFFF;" parent="06FVIsJlmWont9KGnBh9-62" vertex="1" connectable="0">
          <mxGeometry x="0.1311" y="-1" relative="1" as="geometry">
            <mxPoint x="-11" y="-47" as="offset" />
          </mxGeometry>
        </mxCell>
        <mxCell id="06FVIsJlmWont9KGnBh9-64" value="结束&lt;br&gt;StartInodeNum&lt;br&gt;保存了需要查找的文件的Inode号" style="ellipse;whiteSpace=wrap;html=1;strokeColor=#FFFFFF;fontColor=#FFFFFF;fillColor=#182E3E;" parent="1" vertex="1">
          <mxGeometry x="-60" y="690" width="160" height="120" as="geometry" />
        </mxCell>
        <mxCell id="XNiVaNFPiYoeHzE4xXoq-1" value="" style="endArrow=open;startArrow=none;endFill=0;startFill=0;endSize=8;html=1;verticalAlign=bottom;labelBackgroundColor=none;strokeWidth=2;rounded=0;strokeColor=#9933FF;entryX=0.62;entryY=0.912;entryDx=0;entryDy=0;entryPerimeter=0;" parent="1" target="06FVIsJlmWont9KGnBh9-49" edge="1">
          <mxGeometry width="160" relative="1" as="geometry">
            <mxPoint x="867.5" y="560" as="sourcePoint" />
            <mxPoint x="486" y="560" as="targetPoint" />
          </mxGeometry>
        </mxCell>
        <mxCell id="XNiVaNFPiYoeHzE4xXoq-2" value="&lt;b style=&quot;border-color: var(--border-color); color: rgb(102, 102, 255);&quot;&gt;返回判断结果&lt;/b&gt;" style="edgeLabel;html=1;align=center;verticalAlign=middle;resizable=0;points=[];fontColor=#FFFFFF;" parent="XNiVaNFPiYoeHzE4xXoq-1" vertex="1" connectable="0">
          <mxGeometry x="0.1311" y="-1" relative="1" as="geometry">
            <mxPoint x="15" as="offset" />
          </mxGeometry>
        </mxCell>
      </root>
    </mxGraphModel>
  </diagram>
  <diagram id="uCKAdrM9nDORhX8QmCWT" name="第 2 页">
    <mxGraphModel dx="1702" dy="1701" grid="1" gridSize="10" guides="1" tooltips="1" connect="1" arrows="1" fold="1" page="1" pageScale="1" pageWidth="827" pageHeight="1169" math="0" shadow="0">
      <root>
        <mxCell id="0" />
        <mxCell id="1" parent="0" />
        <mxCell id="wbUy2Eui-6K6D-yZi6lW-1" value="HelpWalkPath" style="rounded=0;whiteSpace=wrap;html=1;strokeColor=#FFFFFF;fontColor=#FFFFFF;fillColor=#182E3E;" vertex="1" parent="1">
          <mxGeometry x="40" y="40" width="120" height="60" as="geometry" />
        </mxCell>
        <mxCell id="wbUy2Eui-6K6D-yZi6lW-2" value="HelpFillStat" style="rounded=0;whiteSpace=wrap;html=1;strokeColor=#FFFFFF;fontColor=#FFFFFF;fillColor=#182E3E;" vertex="1" parent="1">
          <mxGeometry x="200" y="40" width="120" height="60" as="geometry" />
        </mxCell>
        <mxCell id="wbUy2Eui-6K6D-yZi6lW-3" value="" style="html=1;points=[];perimeter=orthogonalPerimeter;fillColor=strokeColor;strokeColor=#6666FF;fontColor=#FFFFFF;" vertex="1" parent="1">
          <mxGeometry x="97.5" y="100" width="5" height="260" as="geometry" />
        </mxCell>
        <mxCell id="wbUy2Eui-6K6D-yZi6lW-4" value="" style="html=1;points=[];perimeter=orthogonalPerimeter;fillColor=strokeColor;strokeColor=#6666FF;fontColor=#FFFFFF;" vertex="1" parent="1">
          <mxGeometry x="257.5" y="100" width="5" height="260" as="geometry" />
        </mxCell>
        <mxCell id="1lkFt3onUF0Hfq9DiLOo-11" style="edgeStyle=orthogonalEdgeStyle;rounded=0;orthogonalLoop=1;jettySize=auto;html=1;exitX=0.5;exitY=0.5;exitDx=0;exitDy=0;exitPerimeter=0;strokeColor=#23445D;" edge="1" parent="1" source="1lkFt3onUF0Hfq9DiLOo-10">
          <mxGeometry relative="1" as="geometry">
            <mxPoint x="-140" y="-10.166666666666515" as="targetPoint" />
          </mxGeometry>
        </mxCell>
        <mxCell id="wbUy2Eui-6K6D-yZi6lW-5" value="Actor" style="shape=umlActor;verticalLabelPosition=bottom;verticalAlign=top;html=1;strokeColor=#007FFF;fontColor=#FFFFFF;fillColor=#6666FF;" vertex="1" parent="1">
          <mxGeometry x="-210" y="-40" width="30" height="60" as="geometry" />
        </mxCell>
        <mxCell id="wbUy2Eui-6K6D-yZi6lW-8" value="SFS_getattr" style="rounded=0;whiteSpace=wrap;html=1;strokeColor=#FFFFFF;fontColor=#FFFFFF;fillColor=#182E3E;" vertex="1" parent="1">
          <mxGeometry x="-110" y="40" width="120" height="60" as="geometry" />
        </mxCell>
        <mxCell id="wbUy2Eui-6K6D-yZi6lW-9" value="" style="html=1;points=[];perimeter=orthogonalPerimeter;fillColor=strokeColor;strokeColor=#6666FF;fontColor=#FFFFFF;" vertex="1" parent="1">
          <mxGeometry x="-52.5" y="100" width="5" height="260" as="geometry" />
        </mxCell>
        <mxCell id="wbUy2Eui-6K6D-yZi6lW-10" style="edgeStyle=orthogonalEdgeStyle;rounded=0;orthogonalLoop=1;jettySize=auto;html=1;exitX=0.5;exitY=0.5;exitDx=0;exitDy=0;exitPerimeter=0;strokeColor=#9933FF;entryX=0.233;entryY=0.154;entryDx=0;entryDy=0;entryPerimeter=0;" edge="1" parent="1" target="wbUy2Eui-6K6D-yZi6lW-3">
          <mxGeometry relative="1" as="geometry">
            <mxPoint x="-52.5" y="140" as="sourcePoint" />
            <mxPoint x="30" y="160" as="targetPoint" />
          </mxGeometry>
        </mxCell>
        <mxCell id="wbUy2Eui-6K6D-yZi6lW-11" value="&lt;font color=&quot;#9933ff&quot;&gt;查找文件Inode&lt;/font&gt;" style="edgeLabel;html=1;align=center;verticalAlign=middle;resizable=0;points=[];fontColor=#FFFFFF;fontStyle=1" vertex="1" connectable="0" parent="wbUy2Eui-6K6D-yZi6lW-10">
          <mxGeometry x="0.0638" y="-1" relative="1" as="geometry">
            <mxPoint as="offset" />
          </mxGeometry>
        </mxCell>
        <mxCell id="wbUy2Eui-6K6D-yZi6lW-12" style="edgeStyle=orthogonalEdgeStyle;rounded=0;orthogonalLoop=1;jettySize=auto;html=1;exitX=0.5;exitY=0.5;exitDx=0;exitDy=0;exitPerimeter=0;strokeColor=#9933FF;entryX=0.367;entryY=0.419;entryDx=0;entryDy=0;entryPerimeter=0;" edge="1" parent="1" target="wbUy2Eui-6K6D-yZi6lW-9">
          <mxGeometry relative="1" as="geometry">
            <mxPoint x="97.5" y="210" as="sourcePoint" />
            <mxPoint x="-20" y="210" as="targetPoint" />
          </mxGeometry>
        </mxCell>
        <mxCell id="wbUy2Eui-6K6D-yZi6lW-13" value="&lt;font color=&quot;#9933ff&quot;&gt;返回文件Inode&lt;/font&gt;" style="edgeLabel;html=1;align=center;verticalAlign=middle;resizable=0;points=[];fontColor=#FFFFFF;fontStyle=1" vertex="1" connectable="0" parent="wbUy2Eui-6K6D-yZi6lW-12">
          <mxGeometry x="0.0638" y="-1" relative="1" as="geometry">
            <mxPoint as="offset" />
          </mxGeometry>
        </mxCell>
        <mxCell id="wbUy2Eui-6K6D-yZi6lW-14" style="edgeStyle=orthogonalEdgeStyle;rounded=0;orthogonalLoop=1;jettySize=auto;html=1;exitX=0.5;exitY=0.5;exitDx=0;exitDy=0;exitPerimeter=0;strokeColor=#9933FF;entryX=-0.567;entryY=0.58;entryDx=0;entryDy=0;entryPerimeter=0;" edge="1" parent="1">
          <mxGeometry relative="1" as="geometry">
            <mxPoint x="-45.829999999999984" y="320" as="sourcePoint" />
            <mxPoint x="257.5050000000003" y="320.79999999999995" as="targetPoint" />
          </mxGeometry>
        </mxCell>
        <mxCell id="wbUy2Eui-6K6D-yZi6lW-15" value="&lt;font color=&quot;#9933ff&quot;&gt;填充文件属性&lt;/font&gt;" style="edgeLabel;html=1;align=center;verticalAlign=middle;resizable=0;points=[];fontColor=#FFFFFF;fontStyle=1" vertex="1" connectable="0" parent="wbUy2Eui-6K6D-yZi6lW-14">
          <mxGeometry x="0.0638" y="-1" relative="1" as="geometry">
            <mxPoint as="offset" />
          </mxGeometry>
        </mxCell>
        <mxCell id="1lkFt3onUF0Hfq9DiLOo-1" value="" style="endArrow=none;startArrow=none;endFill=0;startFill=0;endSize=8;html=1;verticalAlign=bottom;labelBackgroundColor=none;strokeWidth=2;rounded=0;strokeColor=#B266FF;" edge="1" parent="1">
          <mxGeometry width="160" relative="1" as="geometry">
            <mxPoint x="-47.5" y="240" as="sourcePoint" />
            <mxPoint x="21" y="240" as="targetPoint" />
          </mxGeometry>
        </mxCell>
        <mxCell id="1lkFt3onUF0Hfq9DiLOo-2" value="&lt;font color=&quot;#b266ff&quot; style=&quot;font-size: 11px;&quot;&gt;&lt;br&gt;&lt;/font&gt;" style="edgeLabel;html=1;align=center;verticalAlign=middle;resizable=0;points=[];fontColor=#FFFFFF;fontSize=11;fontStyle=1" vertex="1" connectable="0" parent="1lkFt3onUF0Hfq9DiLOo-1">
          <mxGeometry x="0.165" y="-1" relative="1" as="geometry">
            <mxPoint x="59" y="69" as="offset" />
          </mxGeometry>
        </mxCell>
        <mxCell id="1lkFt3onUF0Hfq9DiLOo-5" value="&lt;font color=&quot;#b266ff&quot;&gt;&lt;b&gt;通过Inode获取文件属性&lt;/b&gt;&lt;/font&gt;" style="edgeLabel;html=1;align=center;verticalAlign=middle;resizable=0;points=[];fontColor=#FFFFFF;" vertex="1" connectable="0" parent="1lkFt3onUF0Hfq9DiLOo-1">
          <mxGeometry x="-0.1436" y="2" relative="1" as="geometry">
            <mxPoint x="38" y="52" as="offset" />
          </mxGeometry>
        </mxCell>
        <mxCell id="1lkFt3onUF0Hfq9DiLOo-3" value="" style="endArrow=none;startArrow=none;endFill=0;startFill=0;endSize=8;html=1;verticalAlign=bottom;labelBackgroundColor=none;strokeWidth=2;rounded=0;strokeColor=#B266FF;" edge="1" parent="1">
          <mxGeometry width="160" relative="1" as="geometry">
            <mxPoint x="21" y="240" as="sourcePoint" />
            <mxPoint x="20" y="270" as="targetPoint" />
          </mxGeometry>
        </mxCell>
        <mxCell id="1lkFt3onUF0Hfq9DiLOo-4" value="" style="endArrow=open;startArrow=none;endFill=0;startFill=0;endSize=8;html=1;verticalAlign=bottom;labelBackgroundColor=none;strokeWidth=2;rounded=0;strokeColor=#B266FF;entryX=0.58;entryY=0.555;entryDx=0;entryDy=0;entryPerimeter=0;" edge="1" parent="1">
          <mxGeometry width="160" relative="1" as="geometry">
            <mxPoint x="18.5" y="270" as="sourcePoint" />
            <mxPoint x="-47.5" y="270" as="targetPoint" />
          </mxGeometry>
        </mxCell>
        <mxCell id="1lkFt3onUF0Hfq9DiLOo-6" style="edgeStyle=orthogonalEdgeStyle;rounded=0;orthogonalLoop=1;jettySize=auto;html=1;exitX=0.5;exitY=0.5;exitDx=0;exitDy=0;exitPerimeter=0;strokeColor=#9933FF;entryX=0;entryY=0.5;entryDx=0;entryDy=0;" edge="1" parent="1" target="1lkFt3onUF0Hfq9DiLOo-8">
          <mxGeometry relative="1" as="geometry">
            <mxPoint x="-47.5" y="341.08000000000004" as="sourcePoint" />
            <mxPoint x="-210" y="70" as="targetPoint" />
            <Array as="points">
              <mxPoint x="-230" y="341" />
              <mxPoint x="-230" y="70" />
            </Array>
          </mxGeometry>
        </mxCell>
        <mxCell id="1lkFt3onUF0Hfq9DiLOo-7" value="&lt;font color=&quot;#9933ff&quot;&gt;返回&lt;br&gt;stbuf&lt;/font&gt;" style="edgeLabel;html=1;align=center;verticalAlign=middle;resizable=0;points=[];fontColor=#FFFFFF;fontStyle=1" vertex="1" connectable="0" parent="1lkFt3onUF0Hfq9DiLOo-6">
          <mxGeometry x="0.0638" y="-1" relative="1" as="geometry">
            <mxPoint as="offset" />
          </mxGeometry>
        </mxCell>
        <mxCell id="1lkFt3onUF0Hfq9DiLOo-15" style="edgeStyle=orthogonalEdgeStyle;rounded=0;orthogonalLoop=1;jettySize=auto;html=1;exitX=0.5;exitY=0;exitDx=0;exitDy=0;strokeColor=#3333FF;" edge="1" parent="1" source="1lkFt3onUF0Hfq9DiLOo-8" target="wbUy2Eui-6K6D-yZi6lW-5">
          <mxGeometry relative="1" as="geometry" />
        </mxCell>
        <mxCell id="1lkFt3onUF0Hfq9DiLOo-8" value="" style="ellipse;html=1;shape=endState;fillColor=strokeColor;strokeColor=#B266FF;fontColor=#FFFFFF;" vertex="1" parent="1">
          <mxGeometry x="-210" y="55" width="30" height="30" as="geometry" />
        </mxCell>
        <mxCell id="1lkFt3onUF0Hfq9DiLOo-13" value="" style="edgeStyle=orthogonalEdgeStyle;rounded=0;orthogonalLoop=1;jettySize=auto;html=1;exitX=0.5;exitY=0.5;exitDx=0;exitDy=0;exitPerimeter=0;strokeColor=#B266FF;" edge="1" parent="1" source="wbUy2Eui-6K6D-yZi6lW-5" target="1lkFt3onUF0Hfq9DiLOo-10">
          <mxGeometry relative="1" as="geometry">
            <mxPoint x="-140" y="-10.166666666666515" as="targetPoint" />
            <mxPoint x="-195" y="-10" as="sourcePoint" />
          </mxGeometry>
        </mxCell>
        <mxCell id="1lkFt3onUF0Hfq9DiLOo-14" style="edgeStyle=orthogonalEdgeStyle;rounded=0;orthogonalLoop=1;jettySize=auto;html=1;exitX=0.5;exitY=1;exitDx=0;exitDy=0;entryX=0;entryY=0.5;entryDx=0;entryDy=0;strokeColor=#B266FF;" edge="1" parent="1" source="1lkFt3onUF0Hfq9DiLOo-10" target="wbUy2Eui-6K6D-yZi6lW-8">
          <mxGeometry relative="1" as="geometry" />
        </mxCell>
        <mxCell id="1lkFt3onUF0Hfq9DiLOo-10" value="" style="ellipse;fillColor=strokeColor;html=1;strokeColor=#B266FF;fontColor=#FFFFFF;" vertex="1" parent="1">
          <mxGeometry x="-160" y="-25" width="30" height="30" as="geometry" />
        </mxCell>
      </root>
    </mxGraphModel>
  </diagram>
  <diagram id="2p4xCWhhb_xmCruEYIjx" name="第 3 页">
    <mxGraphModel dx="1702" dy="1701" grid="1" gridSize="10" guides="1" tooltips="1" connect="1" arrows="1" fold="1" page="1" pageScale="1" pageWidth="827" pageHeight="1169" math="0" shadow="0">
      <root>
        <mxCell id="0" />
        <mxCell id="1" parent="0" />
        <mxCell id="ejD7_EuLBDKkSVsoBk_z-1" value="HelpWalkPath" style="rounded=0;whiteSpace=wrap;html=1;strokeColor=#FFFFFF;fontColor=#FFFFFF;fillColor=#182E3E;" vertex="1" parent="1">
          <mxGeometry x="180" y="30" width="120" height="60" as="geometry" />
        </mxCell>
        <mxCell id="ejD7_EuLBDKkSVsoBk_z-2" value="HelpGetFileNameFromInodeNum" style="rounded=0;whiteSpace=wrap;html=1;strokeColor=#FFFFFF;fontColor=#FFFFFF;fillColor=#182E3E;" vertex="1" parent="1">
          <mxGeometry x="340" y="30" width="200" height="60" as="geometry" />
        </mxCell>
        <mxCell id="ejD7_EuLBDKkSVsoBk_z-3" value="" style="html=1;points=[];perimeter=orthogonalPerimeter;fillColor=strokeColor;strokeColor=#6666FF;fontColor=#FFFFFF;" vertex="1" parent="1">
          <mxGeometry x="237.5" y="90" width="5" height="260" as="geometry" />
        </mxCell>
        <mxCell id="ejD7_EuLBDKkSVsoBk_z-4" value="" style="html=1;points=[];perimeter=orthogonalPerimeter;fillColor=strokeColor;strokeColor=#6666FF;fontColor=#FFFFFF;" vertex="1" parent="1">
          <mxGeometry x="397.5" y="90" width="5" height="260" as="geometry" />
        </mxCell>
        <mxCell id="ejD7_EuLBDKkSVsoBk_z-5" style="edgeStyle=orthogonalEdgeStyle;rounded=0;orthogonalLoop=1;jettySize=auto;html=1;exitX=0.5;exitY=0.5;exitDx=0;exitDy=0;exitPerimeter=0;strokeColor=#23445D;" edge="1" parent="1" source="ejD7_EuLBDKkSVsoBk_z-26">
          <mxGeometry relative="1" as="geometry">
            <mxPoint y="-20.166666666666515" as="targetPoint" />
          </mxGeometry>
        </mxCell>
        <mxCell id="ejD7_EuLBDKkSVsoBk_z-6" value="Actor" style="shape=umlActor;verticalLabelPosition=bottom;verticalAlign=top;html=1;strokeColor=#007FFF;fontColor=#FFFFFF;fillColor=#6666FF;" vertex="1" parent="1">
          <mxGeometry x="-70" y="-50" width="30" height="60" as="geometry" />
        </mxCell>
        <mxCell id="ejD7_EuLBDKkSVsoBk_z-7" value="SFS_readdir" style="rounded=0;whiteSpace=wrap;html=1;strokeColor=#FFFFFF;fontColor=#FFFFFF;fillColor=#182E3E;" vertex="1" parent="1">
          <mxGeometry x="30" y="30" width="120" height="60" as="geometry" />
        </mxCell>
        <mxCell id="ejD7_EuLBDKkSVsoBk_z-8" value="" style="html=1;points=[];perimeter=orthogonalPerimeter;fillColor=strokeColor;strokeColor=#6666FF;fontColor=#FFFFFF;" vertex="1" parent="1">
          <mxGeometry x="87.5" y="90" width="5" height="260" as="geometry" />
        </mxCell>
        <mxCell id="ejD7_EuLBDKkSVsoBk_z-9" style="edgeStyle=orthogonalEdgeStyle;rounded=0;orthogonalLoop=1;jettySize=auto;html=1;exitX=0.5;exitY=0.5;exitDx=0;exitDy=0;exitPerimeter=0;strokeColor=#9933FF;entryX=0.233;entryY=0.154;entryDx=0;entryDy=0;entryPerimeter=0;" edge="1" parent="1" target="ejD7_EuLBDKkSVsoBk_z-3">
          <mxGeometry relative="1" as="geometry">
            <mxPoint x="87.5" y="130" as="sourcePoint" />
            <mxPoint x="170" y="150" as="targetPoint" />
          </mxGeometry>
        </mxCell>
        <mxCell id="ejD7_EuLBDKkSVsoBk_z-10" value="&lt;font color=&quot;#9933ff&quot;&gt;查找目录Inode&lt;/font&gt;" style="edgeLabel;html=1;align=center;verticalAlign=middle;resizable=0;points=[];fontColor=#FFFFFF;fontStyle=1" vertex="1" connectable="0" parent="ejD7_EuLBDKkSVsoBk_z-9">
          <mxGeometry x="0.0638" y="-1" relative="1" as="geometry">
            <mxPoint as="offset" />
          </mxGeometry>
        </mxCell>
        <mxCell id="ejD7_EuLBDKkSVsoBk_z-11" style="edgeStyle=orthogonalEdgeStyle;rounded=0;orthogonalLoop=1;jettySize=auto;html=1;exitX=0.5;exitY=0.5;exitDx=0;exitDy=0;exitPerimeter=0;strokeColor=#9933FF;entryX=0.367;entryY=0.419;entryDx=0;entryDy=0;entryPerimeter=0;" edge="1" parent="1" target="ejD7_EuLBDKkSVsoBk_z-8">
          <mxGeometry relative="1" as="geometry">
            <mxPoint x="237.5" y="200" as="sourcePoint" />
            <mxPoint x="120" y="200" as="targetPoint" />
          </mxGeometry>
        </mxCell>
        <mxCell id="ejD7_EuLBDKkSVsoBk_z-12" value="&lt;font color=&quot;#9933ff&quot;&gt;返回目录Inode&lt;/font&gt;" style="edgeLabel;html=1;align=center;verticalAlign=middle;resizable=0;points=[];fontColor=#FFFFFF;fontStyle=1" vertex="1" connectable="0" parent="ejD7_EuLBDKkSVsoBk_z-11">
          <mxGeometry x="0.0638" y="-1" relative="1" as="geometry">
            <mxPoint as="offset" />
          </mxGeometry>
        </mxCell>
        <mxCell id="ejD7_EuLBDKkSVsoBk_z-13" style="edgeStyle=orthogonalEdgeStyle;rounded=0;orthogonalLoop=1;jettySize=auto;html=1;exitX=0.5;exitY=0.5;exitDx=0;exitDy=0;exitPerimeter=0;strokeColor=#9933FF;entryX=-0.567;entryY=0.58;entryDx=0;entryDy=0;entryPerimeter=0;" edge="1" parent="1">
          <mxGeometry relative="1" as="geometry">
            <mxPoint x="92.50000000000001" y="240" as="sourcePoint" />
            <mxPoint x="395.83500000000026" y="240.79999999999995" as="targetPoint" />
          </mxGeometry>
        </mxCell>
        <mxCell id="ejD7_EuLBDKkSVsoBk_z-14" value="&lt;font color=&quot;#9933ff&quot;&gt;通过子文件Inode号&lt;br&gt;获取子文件名&lt;/font&gt;" style="edgeLabel;html=1;align=center;verticalAlign=middle;resizable=0;points=[];fontColor=#FFFFFF;fontStyle=1" vertex="1" connectable="0" parent="ejD7_EuLBDKkSVsoBk_z-13">
          <mxGeometry x="0.0638" y="-1" relative="1" as="geometry">
            <mxPoint as="offset" />
          </mxGeometry>
        </mxCell>
        <mxCell id="ejD7_EuLBDKkSVsoBk_z-20" style="edgeStyle=orthogonalEdgeStyle;rounded=0;orthogonalLoop=1;jettySize=auto;html=1;exitX=0.5;exitY=0.5;exitDx=0;exitDy=0;exitPerimeter=0;strokeColor=#9933FF;entryX=0;entryY=0.5;entryDx=0;entryDy=0;" edge="1" parent="1" target="ejD7_EuLBDKkSVsoBk_z-23">
          <mxGeometry relative="1" as="geometry">
            <mxPoint x="92.5" y="331.08000000000004" as="sourcePoint" />
            <mxPoint x="-70" y="60" as="targetPoint" />
            <Array as="points">
              <mxPoint x="-90" y="331" />
              <mxPoint x="-90" y="60" />
            </Array>
          </mxGeometry>
        </mxCell>
        <mxCell id="ejD7_EuLBDKkSVsoBk_z-21" value="&lt;font color=&quot;#9933ff&quot;&gt;调用&lt;br&gt;filler函数&lt;br&gt;添加文件名&lt;br&gt;&lt;/font&gt;" style="edgeLabel;html=1;align=center;verticalAlign=middle;resizable=0;points=[];fontColor=#FFFFFF;fontStyle=1" vertex="1" connectable="0" parent="ejD7_EuLBDKkSVsoBk_z-20">
          <mxGeometry x="0.0638" y="-1" relative="1" as="geometry">
            <mxPoint as="offset" />
          </mxGeometry>
        </mxCell>
        <mxCell id="ejD7_EuLBDKkSVsoBk_z-22" style="edgeStyle=orthogonalEdgeStyle;rounded=0;orthogonalLoop=1;jettySize=auto;html=1;exitX=0.5;exitY=0;exitDx=0;exitDy=0;strokeColor=#3333FF;" edge="1" parent="1" source="ejD7_EuLBDKkSVsoBk_z-23" target="ejD7_EuLBDKkSVsoBk_z-6">
          <mxGeometry relative="1" as="geometry" />
        </mxCell>
        <mxCell id="ejD7_EuLBDKkSVsoBk_z-23" value="" style="ellipse;html=1;shape=endState;fillColor=strokeColor;strokeColor=#B266FF;fontColor=#FFFFFF;" vertex="1" parent="1">
          <mxGeometry x="-70" y="45" width="30" height="30" as="geometry" />
        </mxCell>
        <mxCell id="ejD7_EuLBDKkSVsoBk_z-24" value="" style="edgeStyle=orthogonalEdgeStyle;rounded=0;orthogonalLoop=1;jettySize=auto;html=1;exitX=0.5;exitY=0.5;exitDx=0;exitDy=0;exitPerimeter=0;strokeColor=#B266FF;" edge="1" parent="1" source="ejD7_EuLBDKkSVsoBk_z-6" target="ejD7_EuLBDKkSVsoBk_z-26">
          <mxGeometry relative="1" as="geometry">
            <mxPoint y="-20.166666666666515" as="targetPoint" />
            <mxPoint x="-55" y="-20" as="sourcePoint" />
          </mxGeometry>
        </mxCell>
        <mxCell id="ejD7_EuLBDKkSVsoBk_z-25" style="edgeStyle=orthogonalEdgeStyle;rounded=0;orthogonalLoop=1;jettySize=auto;html=1;exitX=0.5;exitY=1;exitDx=0;exitDy=0;entryX=0;entryY=0.5;entryDx=0;entryDy=0;strokeColor=#B266FF;" edge="1" parent="1" source="ejD7_EuLBDKkSVsoBk_z-26" target="ejD7_EuLBDKkSVsoBk_z-7">
          <mxGeometry relative="1" as="geometry" />
        </mxCell>
        <mxCell id="ejD7_EuLBDKkSVsoBk_z-26" value="" style="ellipse;fillColor=strokeColor;html=1;strokeColor=#B266FF;fontColor=#FFFFFF;" vertex="1" parent="1">
          <mxGeometry x="-20" y="-35" width="30" height="30" as="geometry" />
        </mxCell>
        <mxCell id="ejD7_EuLBDKkSVsoBk_z-27" style="edgeStyle=orthogonalEdgeStyle;rounded=0;orthogonalLoop=1;jettySize=auto;html=1;exitX=0.5;exitY=0.5;exitDx=0;exitDy=0;exitPerimeter=0;strokeColor=#9933FF;entryX=1.3;entryY=0.771;entryDx=0;entryDy=0;entryPerimeter=0;" edge="1" parent="1" target="ejD7_EuLBDKkSVsoBk_z-8">
          <mxGeometry relative="1" as="geometry">
            <mxPoint x="402.5" y="291.08" as="sourcePoint" />
            <mxPoint x="254" y="290.08" as="targetPoint" />
          </mxGeometry>
        </mxCell>
        <mxCell id="ejD7_EuLBDKkSVsoBk_z-28" value="&lt;font color=&quot;#9933ff&quot;&gt;返回子文件名&lt;/font&gt;" style="edgeLabel;html=1;align=center;verticalAlign=middle;resizable=0;points=[];fontColor=#FFFFFF;fontStyle=1" vertex="1" connectable="0" parent="ejD7_EuLBDKkSVsoBk_z-27">
          <mxGeometry x="0.0638" y="-1" relative="1" as="geometry">
            <mxPoint as="offset" />
          </mxGeometry>
        </mxCell>
      </root>
    </mxGraphModel>
  </diagram>
  <diagram name="第 4 页" id="qD84ONHb2aCC-X1jso4I">
    <mxGraphModel dx="1702" dy="1701" grid="1" gridSize="10" guides="1" tooltips="1" connect="1" arrows="1" fold="1" page="1" pageScale="1" pageWidth="827" pageHeight="1169" math="0" shadow="0">
      <root>
        <mxCell id="JRUVoUhCG8TI8RYobFwX-0" />
        <mxCell id="JRUVoUhCG8TI8RYobFwX-1" parent="JRUVoUhCG8TI8RYobFwX-0" />
        <mxCell id="JRUVoUhCG8TI8RYobFwX-2" value="HelpWalkPath" style="rounded=0;whiteSpace=wrap;html=1;strokeColor=#FFFFFF;fontColor=#FFFFFF;fillColor=#182E3E;" vertex="1" parent="JRUVoUhCG8TI8RYobFwX-1">
          <mxGeometry x="180" y="30" width="120" height="60" as="geometry" />
        </mxCell>
        <mxCell id="JRUVoUhCG8TI8RYobFwX-4" value="" style="html=1;points=[];perimeter=orthogonalPerimeter;fillColor=strokeColor;strokeColor=#6666FF;fontColor=#FFFFFF;" vertex="1" parent="JRUVoUhCG8TI8RYobFwX-1">
          <mxGeometry x="237.5" y="90" width="5" height="260" as="geometry" />
        </mxCell>
        <mxCell id="JRUVoUhCG8TI8RYobFwX-6" style="edgeStyle=orthogonalEdgeStyle;rounded=0;orthogonalLoop=1;jettySize=auto;html=1;exitX=0.5;exitY=0.5;exitDx=0;exitDy=0;exitPerimeter=0;strokeColor=#23445D;" edge="1" parent="JRUVoUhCG8TI8RYobFwX-1" source="JRUVoUhCG8TI8RYobFwX-22">
          <mxGeometry relative="1" as="geometry">
            <mxPoint y="-20.166666666666515" as="targetPoint" />
          </mxGeometry>
        </mxCell>
        <mxCell id="JRUVoUhCG8TI8RYobFwX-7" value="Actor" style="shape=umlActor;verticalLabelPosition=bottom;verticalAlign=top;html=1;strokeColor=#007FFF;fontColor=#FFFFFF;fillColor=#6666FF;" vertex="1" parent="JRUVoUhCG8TI8RYobFwX-1">
          <mxGeometry x="-70" y="-50" width="30" height="60" as="geometry" />
        </mxCell>
        <mxCell id="JRUVoUhCG8TI8RYobFwX-8" value="SFS_mkdir" style="rounded=0;whiteSpace=wrap;html=1;strokeColor=#FFFFFF;fontColor=#FFFFFF;fillColor=#182E3E;" vertex="1" parent="JRUVoUhCG8TI8RYobFwX-1">
          <mxGeometry x="30" y="30" width="120" height="60" as="geometry" />
        </mxCell>
        <mxCell id="JRUVoUhCG8TI8RYobFwX-9" value="" style="html=1;points=[];perimeter=orthogonalPerimeter;fillColor=strokeColor;strokeColor=#6666FF;fontColor=#FFFFFF;" vertex="1" parent="JRUVoUhCG8TI8RYobFwX-1">
          <mxGeometry x="87.5" y="90" width="5" height="260" as="geometry" />
        </mxCell>
        <mxCell id="JRUVoUhCG8TI8RYobFwX-10" style="edgeStyle=orthogonalEdgeStyle;rounded=0;orthogonalLoop=1;jettySize=auto;html=1;exitX=0.5;exitY=0.5;exitDx=0;exitDy=0;exitPerimeter=0;strokeColor=#9933FF;entryX=0.233;entryY=0.154;entryDx=0;entryDy=0;entryPerimeter=0;" edge="1" parent="JRUVoUhCG8TI8RYobFwX-1" target="JRUVoUhCG8TI8RYobFwX-4">
          <mxGeometry relative="1" as="geometry">
            <mxPoint x="87.5" y="130" as="sourcePoint" />
            <mxPoint x="170" y="150" as="targetPoint" />
          </mxGeometry>
        </mxCell>
        <mxCell id="JRUVoUhCG8TI8RYobFwX-11" value="&lt;font color=&quot;#9933ff&quot;&gt;查找父目录Inode&lt;/font&gt;" style="edgeLabel;html=1;align=center;verticalAlign=middle;resizable=0;points=[];fontColor=#FFFFFF;fontStyle=1" vertex="1" connectable="0" parent="JRUVoUhCG8TI8RYobFwX-10">
          <mxGeometry x="0.0638" y="-1" relative="1" as="geometry">
            <mxPoint as="offset" />
          </mxGeometry>
        </mxCell>
        <mxCell id="JRUVoUhCG8TI8RYobFwX-12" style="edgeStyle=orthogonalEdgeStyle;rounded=0;orthogonalLoop=1;jettySize=auto;html=1;exitX=0.5;exitY=0.5;exitDx=0;exitDy=0;exitPerimeter=0;strokeColor=#9933FF;entryX=0.367;entryY=0.419;entryDx=0;entryDy=0;entryPerimeter=0;" edge="1" parent="JRUVoUhCG8TI8RYobFwX-1">
          <mxGeometry relative="1" as="geometry">
            <mxPoint x="242.5" y="161.07999999999998" as="sourcePoint" />
            <mxPoint x="94.33500000000026" y="160.02000000000004" as="targetPoint" />
            <Array as="points">
              <mxPoint x="169" y="161" />
              <mxPoint x="169" y="160" />
            </Array>
          </mxGeometry>
        </mxCell>
        <mxCell id="JRUVoUhCG8TI8RYobFwX-13" value="&lt;font color=&quot;#9933ff&quot;&gt;返回父目录Inode&lt;/font&gt;" style="edgeLabel;html=1;align=center;verticalAlign=middle;resizable=0;points=[];fontColor=#FFFFFF;fontStyle=1" vertex="1" connectable="0" parent="JRUVoUhCG8TI8RYobFwX-12">
          <mxGeometry x="0.0638" y="-1" relative="1" as="geometry">
            <mxPoint y="1" as="offset" />
          </mxGeometry>
        </mxCell>
        <mxCell id="JRUVoUhCG8TI8RYobFwX-18" style="edgeStyle=orthogonalEdgeStyle;rounded=0;orthogonalLoop=1;jettySize=auto;html=1;exitX=0.5;exitY=0;exitDx=0;exitDy=0;strokeColor=#3333FF;" edge="1" parent="JRUVoUhCG8TI8RYobFwX-1" source="JRUVoUhCG8TI8RYobFwX-19" target="JRUVoUhCG8TI8RYobFwX-7">
          <mxGeometry relative="1" as="geometry" />
        </mxCell>
        <mxCell id="JRUVoUhCG8TI8RYobFwX-19" value="" style="ellipse;html=1;shape=endState;fillColor=strokeColor;strokeColor=#B266FF;fontColor=#FFFFFF;" vertex="1" parent="JRUVoUhCG8TI8RYobFwX-1">
          <mxGeometry x="-70" y="45" width="30" height="30" as="geometry" />
        </mxCell>
        <mxCell id="JRUVoUhCG8TI8RYobFwX-20" value="" style="edgeStyle=orthogonalEdgeStyle;rounded=0;orthogonalLoop=1;jettySize=auto;html=1;exitX=0.5;exitY=0.5;exitDx=0;exitDy=0;exitPerimeter=0;strokeColor=#B266FF;" edge="1" parent="JRUVoUhCG8TI8RYobFwX-1" source="JRUVoUhCG8TI8RYobFwX-7" target="JRUVoUhCG8TI8RYobFwX-22">
          <mxGeometry relative="1" as="geometry">
            <mxPoint y="-20.166666666666515" as="targetPoint" />
            <mxPoint x="-55" y="-20" as="sourcePoint" />
          </mxGeometry>
        </mxCell>
        <mxCell id="JRUVoUhCG8TI8RYobFwX-21" style="edgeStyle=orthogonalEdgeStyle;rounded=0;orthogonalLoop=1;jettySize=auto;html=1;exitX=0.5;exitY=1;exitDx=0;exitDy=0;entryX=0;entryY=0.5;entryDx=0;entryDy=0;strokeColor=#B266FF;" edge="1" parent="JRUVoUhCG8TI8RYobFwX-1" source="JRUVoUhCG8TI8RYobFwX-22" target="JRUVoUhCG8TI8RYobFwX-8">
          <mxGeometry relative="1" as="geometry" />
        </mxCell>
        <mxCell id="JRUVoUhCG8TI8RYobFwX-22" value="" style="ellipse;fillColor=strokeColor;html=1;strokeColor=#B266FF;fontColor=#FFFFFF;" vertex="1" parent="JRUVoUhCG8TI8RYobFwX-1">
          <mxGeometry x="-20" y="-35" width="30" height="30" as="geometry" />
        </mxCell>
        <mxCell id="GrSD78EhJicWb3ZHqOHv-5" value="" style="endArrow=none;startArrow=none;endFill=0;startFill=0;endSize=8;html=1;verticalAlign=bottom;labelBackgroundColor=none;strokeWidth=3;rounded=0;strokeColor=#CC99FF;" edge="1" parent="JRUVoUhCG8TI8RYobFwX-1">
          <mxGeometry width="160" relative="1" as="geometry">
            <mxPoint x="92.5" y="230" as="sourcePoint" />
            <mxPoint x="150" y="230" as="targetPoint" />
          </mxGeometry>
        </mxCell>
        <mxCell id="GrSD78EhJicWb3ZHqOHv-17" value="" style="endArrow=none;startArrow=none;endFill=0;startFill=0;endSize=8;html=1;verticalAlign=bottom;labelBackgroundColor=none;strokeWidth=3;rounded=0;strokeColor=#CC99FF;" edge="1" parent="JRUVoUhCG8TI8RYobFwX-1">
          <mxGeometry width="160" relative="1" as="geometry">
            <mxPoint x="150" y="230" as="sourcePoint" />
            <mxPoint x="150" y="260" as="targetPoint" />
          </mxGeometry>
        </mxCell>
        <mxCell id="GrSD78EhJicWb3ZHqOHv-20" style="edgeStyle=orthogonalEdgeStyle;rounded=0;orthogonalLoop=1;jettySize=auto;html=1;strokeColor=#CC99FF;strokeWidth=2;entryX=0.9;entryY=0.653;entryDx=0;entryDy=0;entryPerimeter=0;" edge="1" parent="JRUVoUhCG8TI8RYobFwX-1" target="JRUVoUhCG8TI8RYobFwX-9">
          <mxGeometry relative="1" as="geometry">
            <mxPoint x="150" y="260" as="sourcePoint" />
            <mxPoint x="110" y="270" as="targetPoint" />
          </mxGeometry>
        </mxCell>
        <mxCell id="GrSD78EhJicWb3ZHqOHv-22" value="&lt;font color=&quot;#9933ff&quot;&gt;填充父目录&lt;br&gt;dentry.childInodeNo&lt;br&gt;&lt;/font&gt;" style="edgeLabel;html=1;align=center;verticalAlign=middle;resizable=0;points=[];fontColor=#FFFFFF;fontStyle=1" vertex="1" connectable="0" parent="GrSD78EhJicWb3ZHqOHv-20">
          <mxGeometry x="-0.2449" y="-2" relative="1" as="geometry">
            <mxPoint x="22" y="22" as="offset" />
          </mxGeometry>
        </mxCell>
        <mxCell id="GrSD78EhJicWb3ZHqOHv-24" value="getBitmapValue" style="rounded=0;whiteSpace=wrap;html=1;strokeColor=#FFFFFF;fontColor=#FFFFFF;fillColor=#182E3E;" vertex="1" parent="JRUVoUhCG8TI8RYobFwX-1">
          <mxGeometry x="330" y="30" width="120" height="60" as="geometry" />
        </mxCell>
        <mxCell id="GrSD78EhJicWb3ZHqOHv-25" value="" style="html=1;points=[];perimeter=orthogonalPerimeter;fillColor=strokeColor;strokeColor=#6666FF;fontColor=#FFFFFF;" vertex="1" parent="JRUVoUhCG8TI8RYobFwX-1">
          <mxGeometry x="387.5" y="90" width="5" height="260" as="geometry" />
        </mxCell>
        <mxCell id="GrSD78EhJicWb3ZHqOHv-26" value="setBitmapValue" style="rounded=0;whiteSpace=wrap;html=1;strokeColor=#FFFFFF;fontColor=#FFFFFF;fillColor=#182E3E;" vertex="1" parent="JRUVoUhCG8TI8RYobFwX-1">
          <mxGeometry x="480" y="30" width="120" height="60" as="geometry" />
        </mxCell>
        <mxCell id="GrSD78EhJicWb3ZHqOHv-27" value="" style="html=1;points=[];perimeter=orthogonalPerimeter;fillColor=strokeColor;strokeColor=#6666FF;fontColor=#FFFFFF;" vertex="1" parent="JRUVoUhCG8TI8RYobFwX-1">
          <mxGeometry x="537.5" y="90" width="5" height="260" as="geometry" />
        </mxCell>
        <mxCell id="GrSD78EhJicWb3ZHqOHv-28" style="edgeStyle=orthogonalEdgeStyle;rounded=0;orthogonalLoop=1;jettySize=auto;html=1;exitX=0.5;exitY=0.5;exitDx=0;exitDy=0;exitPerimeter=0;strokeColor=#9933FF;entryX=0.1;entryY=0.348;entryDx=0;entryDy=0;entryPerimeter=0;" edge="1" parent="JRUVoUhCG8TI8RYobFwX-1" target="GrSD78EhJicWb3ZHqOHv-25">
          <mxGeometry relative="1" as="geometry">
            <mxPoint x="87.5" y="180" as="sourcePoint" />
            <mxPoint x="239" y="180" as="targetPoint" />
          </mxGeometry>
        </mxCell>
        <mxCell id="GrSD78EhJicWb3ZHqOHv-29" value="&lt;font color=&quot;#9933ff&quot;&gt;通过位图查找可用块&lt;/font&gt;" style="edgeLabel;html=1;align=center;verticalAlign=middle;resizable=0;points=[];fontColor=#FFFFFF;fontStyle=1" vertex="1" connectable="0" parent="GrSD78EhJicWb3ZHqOHv-28">
          <mxGeometry x="0.0638" y="-1" relative="1" as="geometry">
            <mxPoint as="offset" />
          </mxGeometry>
        </mxCell>
        <mxCell id="GrSD78EhJicWb3ZHqOHv-33" style="edgeStyle=orthogonalEdgeStyle;rounded=0;orthogonalLoop=1;jettySize=auto;html=1;exitX=-0.167;exitY=0.466;exitDx=0;exitDy=0;exitPerimeter=0;strokeColor=#9933FF;entryX=0.367;entryY=0.419;entryDx=0;entryDy=0;entryPerimeter=0;" edge="1" parent="JRUVoUhCG8TI8RYobFwX-1" source="GrSD78EhJicWb3ZHqOHv-25">
          <mxGeometry relative="1" as="geometry">
            <mxPoint x="242.5" y="211.07999999999998" as="sourcePoint" />
            <mxPoint x="94.33500000000026" y="210.02000000000004" as="targetPoint" />
            <Array as="points">
              <mxPoint x="387" y="210" />
            </Array>
          </mxGeometry>
        </mxCell>
        <mxCell id="GrSD78EhJicWb3ZHqOHv-34" value="&lt;font color=&quot;#9933ff&quot;&gt;返回可用块&lt;/font&gt;" style="edgeLabel;html=1;align=center;verticalAlign=middle;resizable=0;points=[];fontColor=#FFFFFF;fontStyle=1" vertex="1" connectable="0" parent="GrSD78EhJicWb3ZHqOHv-33">
          <mxGeometry x="0.0638" y="-1" relative="1" as="geometry">
            <mxPoint y="1" as="offset" />
          </mxGeometry>
        </mxCell>
        <mxCell id="GrSD78EhJicWb3ZHqOHv-35" style="edgeStyle=orthogonalEdgeStyle;rounded=0;orthogonalLoop=1;jettySize=auto;html=1;exitX=0.5;exitY=0.5;exitDx=0;exitDy=0;exitPerimeter=0;strokeColor=#9933FF;entryX=0.233;entryY=0.851;entryDx=0;entryDy=0;entryPerimeter=0;" edge="1" parent="JRUVoUhCG8TI8RYobFwX-1" target="GrSD78EhJicWb3ZHqOHv-27">
          <mxGeometry relative="1" as="geometry">
            <mxPoint x="92.5" y="310" as="sourcePoint" />
            <mxPoint x="244" y="310" as="targetPoint" />
          </mxGeometry>
        </mxCell>
        <mxCell id="GrSD78EhJicWb3ZHqOHv-36" value="&lt;font color=&quot;#9933ff&quot;&gt;设置位图值&lt;/font&gt;" style="edgeLabel;html=1;align=center;verticalAlign=middle;resizable=0;points=[];fontColor=#FFFFFF;fontStyle=1" vertex="1" connectable="0" parent="GrSD78EhJicWb3ZHqOHv-35">
          <mxGeometry x="0.0638" y="-1" relative="1" as="geometry">
            <mxPoint as="offset" />
          </mxGeometry>
        </mxCell>
        <mxCell id="GrSD78EhJicWb3ZHqOHv-37" style="edgeStyle=orthogonalEdgeStyle;rounded=0;orthogonalLoop=1;jettySize=auto;html=1;exitX=0.5;exitY=0.5;exitDx=0;exitDy=0;exitPerimeter=0;strokeColor=#9933FF;entryX=0.5;entryY=1;entryDx=0;entryDy=0;" edge="1" parent="JRUVoUhCG8TI8RYobFwX-1" target="JRUVoUhCG8TI8RYobFwX-19">
          <mxGeometry relative="1" as="geometry">
            <mxPoint x="87.5" y="331.08" as="sourcePoint" />
            <mxPoint x="-60.664999999999736" y="330.02000000000004" as="targetPoint" />
            <Array as="points">
              <mxPoint x="-55" y="331" />
            </Array>
          </mxGeometry>
        </mxCell>
        <mxCell id="GrSD78EhJicWb3ZHqOHv-38" value="&lt;font color=&quot;#9933ff&quot;&gt;写回&lt;br&gt;dentry&lt;br&gt;Bitmap&lt;br&gt;到文件&lt;br&gt;&lt;/font&gt;" style="edgeLabel;html=1;align=center;verticalAlign=middle;resizable=0;points=[];fontColor=#FFFFFF;fontStyle=1" vertex="1" connectable="0" parent="GrSD78EhJicWb3ZHqOHv-37">
          <mxGeometry x="0.0638" y="-1" relative="1" as="geometry">
            <mxPoint x="-1" y="-52" as="offset" />
          </mxGeometry>
        </mxCell>
      </root>
    </mxGraphModel>
  </diagram>
  <diagram id="6zVH6pBlOfTdkgyXXOP_" name="第 5 页">
    <mxGraphModel dx="1877" dy="1807" grid="1" gridSize="10" guides="1" tooltips="1" connect="1" arrows="1" fold="1" page="1" pageScale="1" pageWidth="827" pageHeight="1169" math="0" shadow="0">
      <root>
        <mxCell id="0" />
        <mxCell id="1" parent="0" />
        <mxCell id="qy55_6LhjBktXtmr5NWF-1" value="HelpWalkPath" style="rounded=0;whiteSpace=wrap;html=1;strokeColor=#FFFFFF;fontColor=#FFFFFF;fillColor=#182E3E;" vertex="1" parent="1">
          <mxGeometry x="180" y="30" width="120" height="60" as="geometry" />
        </mxCell>
        <mxCell id="qy55_6LhjBktXtmr5NWF-2" value="" style="html=1;points=[];perimeter=orthogonalPerimeter;fillColor=strokeColor;strokeColor=#6666FF;fontColor=#FFFFFF;" vertex="1" parent="1">
          <mxGeometry x="237.5" y="90" width="5" height="260" as="geometry" />
        </mxCell>
        <mxCell id="qy55_6LhjBktXtmr5NWF-3" style="edgeStyle=orthogonalEdgeStyle;rounded=0;orthogonalLoop=1;jettySize=auto;html=1;exitX=0.5;exitY=0.5;exitDx=0;exitDy=0;exitPerimeter=0;strokeColor=#23445D;" edge="1" parent="1" source="qy55_6LhjBktXtmr5NWF-15">
          <mxGeometry relative="1" as="geometry">
            <mxPoint y="-20.166666666666515" as="targetPoint" />
          </mxGeometry>
        </mxCell>
        <mxCell id="qy55_6LhjBktXtmr5NWF-4" value="Actor" style="shape=umlActor;verticalLabelPosition=bottom;verticalAlign=top;html=1;strokeColor=#007FFF;fontColor=#FFFFFF;fillColor=#6666FF;" vertex="1" parent="1">
          <mxGeometry x="-70" y="-50" width="30" height="60" as="geometry" />
        </mxCell>
        <mxCell id="qy55_6LhjBktXtmr5NWF-5" value="SFS_rmdir" style="rounded=0;whiteSpace=wrap;html=1;strokeColor=#FFFFFF;fontColor=#FFFFFF;fillColor=#182E3E;" vertex="1" parent="1">
          <mxGeometry x="30" y="30" width="120" height="60" as="geometry" />
        </mxCell>
        <mxCell id="qy55_6LhjBktXtmr5NWF-6" value="" style="html=1;points=[];perimeter=orthogonalPerimeter;fillColor=strokeColor;strokeColor=#6666FF;fontColor=#FFFFFF;" vertex="1" parent="1">
          <mxGeometry x="87.5" y="90" width="5" height="260" as="geometry" />
        </mxCell>
        <mxCell id="qy55_6LhjBktXtmr5NWF-7" style="edgeStyle=orthogonalEdgeStyle;rounded=0;orthogonalLoop=1;jettySize=auto;html=1;exitX=0.5;exitY=0.5;exitDx=0;exitDy=0;exitPerimeter=0;strokeColor=#9933FF;entryX=0.233;entryY=0.154;entryDx=0;entryDy=0;entryPerimeter=0;" edge="1" parent="1" target="qy55_6LhjBktXtmr5NWF-2">
          <mxGeometry relative="1" as="geometry">
            <mxPoint x="87.5" y="130" as="sourcePoint" />
            <mxPoint x="170" y="150" as="targetPoint" />
          </mxGeometry>
        </mxCell>
        <mxCell id="qy55_6LhjBktXtmr5NWF-8" value="&lt;font color=&quot;#9933ff&quot;&gt;查找目录、父目录&lt;br&gt;Inode&lt;/font&gt;" style="edgeLabel;html=1;align=center;verticalAlign=middle;resizable=0;points=[];fontColor=#FFFFFF;fontStyle=1" vertex="1" connectable="0" parent="qy55_6LhjBktXtmr5NWF-7">
          <mxGeometry x="0.0638" y="-1" relative="1" as="geometry">
            <mxPoint as="offset" />
          </mxGeometry>
        </mxCell>
        <mxCell id="qy55_6LhjBktXtmr5NWF-9" style="edgeStyle=orthogonalEdgeStyle;rounded=0;orthogonalLoop=1;jettySize=auto;html=1;exitX=0.5;exitY=0.5;exitDx=0;exitDy=0;exitPerimeter=0;strokeColor=#9933FF;entryX=0.367;entryY=0.419;entryDx=0;entryDy=0;entryPerimeter=0;" edge="1" parent="1">
          <mxGeometry relative="1" as="geometry">
            <mxPoint x="242.5" y="161.07999999999998" as="sourcePoint" />
            <mxPoint x="94.33500000000026" y="160.02000000000004" as="targetPoint" />
            <Array as="points">
              <mxPoint x="169" y="161" />
              <mxPoint x="169" y="160" />
            </Array>
          </mxGeometry>
        </mxCell>
        <mxCell id="qy55_6LhjBktXtmr5NWF-10" value="&lt;font color=&quot;#9933ff&quot;&gt;返回Inode号&lt;/font&gt;" style="edgeLabel;html=1;align=center;verticalAlign=middle;resizable=0;points=[];fontColor=#FFFFFF;fontStyle=1" vertex="1" connectable="0" parent="qy55_6LhjBktXtmr5NWF-9">
          <mxGeometry x="0.0638" y="-1" relative="1" as="geometry">
            <mxPoint y="1" as="offset" />
          </mxGeometry>
        </mxCell>
        <mxCell id="qy55_6LhjBktXtmr5NWF-11" style="edgeStyle=orthogonalEdgeStyle;rounded=0;orthogonalLoop=1;jettySize=auto;html=1;exitX=0.5;exitY=0;exitDx=0;exitDy=0;strokeColor=#3333FF;" edge="1" parent="1" source="qy55_6LhjBktXtmr5NWF-12" target="qy55_6LhjBktXtmr5NWF-4">
          <mxGeometry relative="1" as="geometry" />
        </mxCell>
        <mxCell id="qy55_6LhjBktXtmr5NWF-12" value="" style="ellipse;html=1;shape=endState;fillColor=strokeColor;strokeColor=#B266FF;fontColor=#FFFFFF;" vertex="1" parent="1">
          <mxGeometry x="-70" y="45" width="30" height="30" as="geometry" />
        </mxCell>
        <mxCell id="qy55_6LhjBktXtmr5NWF-13" value="" style="edgeStyle=orthogonalEdgeStyle;rounded=0;orthogonalLoop=1;jettySize=auto;html=1;exitX=0.5;exitY=0.5;exitDx=0;exitDy=0;exitPerimeter=0;strokeColor=#B266FF;" edge="1" parent="1" source="qy55_6LhjBktXtmr5NWF-4" target="qy55_6LhjBktXtmr5NWF-15">
          <mxGeometry relative="1" as="geometry">
            <mxPoint y="-20.166666666666515" as="targetPoint" />
            <mxPoint x="-55" y="-20" as="sourcePoint" />
          </mxGeometry>
        </mxCell>
        <mxCell id="qy55_6LhjBktXtmr5NWF-14" style="edgeStyle=orthogonalEdgeStyle;rounded=0;orthogonalLoop=1;jettySize=auto;html=1;exitX=0.5;exitY=1;exitDx=0;exitDy=0;entryX=0;entryY=0.5;entryDx=0;entryDy=0;strokeColor=#B266FF;" edge="1" parent="1" source="qy55_6LhjBktXtmr5NWF-15" target="qy55_6LhjBktXtmr5NWF-5">
          <mxGeometry relative="1" as="geometry" />
        </mxCell>
        <mxCell id="qy55_6LhjBktXtmr5NWF-15" value="" style="ellipse;fillColor=strokeColor;html=1;strokeColor=#B266FF;fontColor=#FFFFFF;" vertex="1" parent="1">
          <mxGeometry x="-20" y="-35" width="30" height="30" as="geometry" />
        </mxCell>
        <mxCell id="qy55_6LhjBktXtmr5NWF-16" value="" style="endArrow=none;startArrow=none;endFill=0;startFill=0;endSize=8;html=1;verticalAlign=bottom;labelBackgroundColor=none;strokeWidth=3;rounded=0;strokeColor=#CC99FF;" edge="1" parent="1">
          <mxGeometry width="160" relative="1" as="geometry">
            <mxPoint x="92.5" y="230" as="sourcePoint" />
            <mxPoint x="150" y="230" as="targetPoint" />
          </mxGeometry>
        </mxCell>
        <mxCell id="qy55_6LhjBktXtmr5NWF-17" value="" style="endArrow=none;startArrow=none;endFill=0;startFill=0;endSize=8;html=1;verticalAlign=bottom;labelBackgroundColor=none;strokeWidth=3;rounded=0;strokeColor=#CC99FF;" edge="1" parent="1">
          <mxGeometry width="160" relative="1" as="geometry">
            <mxPoint x="150" y="230" as="sourcePoint" />
            <mxPoint x="150" y="260" as="targetPoint" />
          </mxGeometry>
        </mxCell>
        <mxCell id="qy55_6LhjBktXtmr5NWF-18" style="edgeStyle=orthogonalEdgeStyle;rounded=0;orthogonalLoop=1;jettySize=auto;html=1;strokeColor=#CC99FF;strokeWidth=2;entryX=0.9;entryY=0.653;entryDx=0;entryDy=0;entryPerimeter=0;" edge="1" parent="1" target="qy55_6LhjBktXtmr5NWF-6">
          <mxGeometry relative="1" as="geometry">
            <mxPoint x="150" y="260" as="sourcePoint" />
            <mxPoint x="110" y="270" as="targetPoint" />
          </mxGeometry>
        </mxCell>
        <mxCell id="qy55_6LhjBktXtmr5NWF-19" value="&lt;font style=&quot;font-size: 10px;&quot; color=&quot;#9933ff&quot;&gt;清空本目录磁盘块中的dentry结构，&lt;br&gt;修改父目录&lt;br&gt;dentry.childInodeNo&lt;br&gt;&lt;/font&gt;" style="edgeLabel;html=1;align=center;verticalAlign=middle;resizable=0;points=[];fontColor=#FFFFFF;fontStyle=1" vertex="1" connectable="0" parent="qy55_6LhjBktXtmr5NWF-18">
          <mxGeometry x="-0.2449" y="-2" relative="1" as="geometry">
            <mxPoint x="22" y="27" as="offset" />
          </mxGeometry>
        </mxCell>
        <mxCell id="qy55_6LhjBktXtmr5NWF-20" value="getBitmapValue" style="rounded=0;whiteSpace=wrap;html=1;strokeColor=#FFFFFF;fontColor=#FFFFFF;fillColor=#182E3E;" vertex="1" parent="1">
          <mxGeometry x="330" y="30" width="120" height="60" as="geometry" />
        </mxCell>
        <mxCell id="qy55_6LhjBktXtmr5NWF-21" value="" style="html=1;points=[];perimeter=orthogonalPerimeter;fillColor=strokeColor;strokeColor=#6666FF;fontColor=#FFFFFF;" vertex="1" parent="1">
          <mxGeometry x="387.5" y="90" width="5" height="260" as="geometry" />
        </mxCell>
        <mxCell id="qy55_6LhjBktXtmr5NWF-22" value="setBitmapValue" style="rounded=0;whiteSpace=wrap;html=1;strokeColor=#FFFFFF;fontColor=#FFFFFF;fillColor=#182E3E;" vertex="1" parent="1">
          <mxGeometry x="480" y="30" width="120" height="60" as="geometry" />
        </mxCell>
        <mxCell id="qy55_6LhjBktXtmr5NWF-23" value="" style="html=1;points=[];perimeter=orthogonalPerimeter;fillColor=strokeColor;strokeColor=#6666FF;fontColor=#FFFFFF;" vertex="1" parent="1">
          <mxGeometry x="537.5" y="90" width="5" height="260" as="geometry" />
        </mxCell>
        <mxCell id="qy55_6LhjBktXtmr5NWF-24" style="edgeStyle=orthogonalEdgeStyle;rounded=0;orthogonalLoop=1;jettySize=auto;html=1;exitX=0.5;exitY=0.5;exitDx=0;exitDy=0;exitPerimeter=0;strokeColor=#9933FF;entryX=0.1;entryY=0.348;entryDx=0;entryDy=0;entryPerimeter=0;" edge="1" parent="1" target="qy55_6LhjBktXtmr5NWF-21">
          <mxGeometry relative="1" as="geometry">
            <mxPoint x="87.5" y="180" as="sourcePoint" />
            <mxPoint x="239" y="180" as="targetPoint" />
          </mxGeometry>
        </mxCell>
        <mxCell id="qy55_6LhjBktXtmr5NWF-25" value="&lt;font color=&quot;#9933ff&quot;&gt;通过位图查找子目录块&lt;/font&gt;" style="edgeLabel;html=1;align=center;verticalAlign=middle;resizable=0;points=[];fontColor=#FFFFFF;fontStyle=1" vertex="1" connectable="0" parent="qy55_6LhjBktXtmr5NWF-24">
          <mxGeometry x="0.0638" y="-1" relative="1" as="geometry">
            <mxPoint as="offset" />
          </mxGeometry>
        </mxCell>
        <mxCell id="qy55_6LhjBktXtmr5NWF-26" style="edgeStyle=orthogonalEdgeStyle;rounded=0;orthogonalLoop=1;jettySize=auto;html=1;exitX=-0.167;exitY=0.466;exitDx=0;exitDy=0;exitPerimeter=0;strokeColor=#9933FF;entryX=0.367;entryY=0.419;entryDx=0;entryDy=0;entryPerimeter=0;" edge="1" parent="1" source="qy55_6LhjBktXtmr5NWF-21">
          <mxGeometry relative="1" as="geometry">
            <mxPoint x="242.5" y="211.07999999999998" as="sourcePoint" />
            <mxPoint x="94.33500000000026" y="210.02000000000004" as="targetPoint" />
            <Array as="points">
              <mxPoint x="387" y="210" />
            </Array>
          </mxGeometry>
        </mxCell>
        <mxCell id="qy55_6LhjBktXtmr5NWF-27" value="&lt;font color=&quot;#9933ff&quot;&gt;返回块号&lt;/font&gt;" style="edgeLabel;html=1;align=center;verticalAlign=middle;resizable=0;points=[];fontColor=#FFFFFF;fontStyle=1" vertex="1" connectable="0" parent="qy55_6LhjBktXtmr5NWF-26">
          <mxGeometry x="0.0638" y="-1" relative="1" as="geometry">
            <mxPoint y="1" as="offset" />
          </mxGeometry>
        </mxCell>
        <mxCell id="qy55_6LhjBktXtmr5NWF-28" style="edgeStyle=orthogonalEdgeStyle;rounded=0;orthogonalLoop=1;jettySize=auto;html=1;exitX=0.5;exitY=0.5;exitDx=0;exitDy=0;exitPerimeter=0;strokeColor=#9933FF;entryX=0.233;entryY=0.851;entryDx=0;entryDy=0;entryPerimeter=0;" edge="1" parent="1" target="qy55_6LhjBktXtmr5NWF-23">
          <mxGeometry relative="1" as="geometry">
            <mxPoint x="92.5" y="310" as="sourcePoint" />
            <mxPoint x="244" y="310" as="targetPoint" />
          </mxGeometry>
        </mxCell>
        <mxCell id="qy55_6LhjBktXtmr5NWF-29" value="&lt;font color=&quot;#9933ff&quot;&gt;设置位图值&lt;/font&gt;" style="edgeLabel;html=1;align=center;verticalAlign=middle;resizable=0;points=[];fontColor=#FFFFFF;fontStyle=1" vertex="1" connectable="0" parent="qy55_6LhjBktXtmr5NWF-28">
          <mxGeometry x="0.0638" y="-1" relative="1" as="geometry">
            <mxPoint as="offset" />
          </mxGeometry>
        </mxCell>
        <mxCell id="qy55_6LhjBktXtmr5NWF-30" style="edgeStyle=orthogonalEdgeStyle;rounded=0;orthogonalLoop=1;jettySize=auto;html=1;exitX=0.5;exitY=0.5;exitDx=0;exitDy=0;exitPerimeter=0;strokeColor=#9933FF;entryX=0.5;entryY=1;entryDx=0;entryDy=0;" edge="1" parent="1" target="qy55_6LhjBktXtmr5NWF-12">
          <mxGeometry relative="1" as="geometry">
            <mxPoint x="87.5" y="331.08" as="sourcePoint" />
            <mxPoint x="-60.664999999999736" y="330.02000000000004" as="targetPoint" />
            <Array as="points">
              <mxPoint x="-55" y="331" />
            </Array>
          </mxGeometry>
        </mxCell>
        <mxCell id="qy55_6LhjBktXtmr5NWF-31" value="&lt;font color=&quot;#9933ff&quot;&gt;写回&lt;br&gt;父目录 dentry、&lt;br&gt;Bitmap&lt;br&gt;到磁盘&lt;br&gt;&lt;/font&gt;" style="edgeLabel;html=1;align=center;verticalAlign=middle;resizable=0;points=[];fontColor=#FFFFFF;fontStyle=1" vertex="1" connectable="0" parent="qy55_6LhjBktXtmr5NWF-30">
          <mxGeometry x="0.0638" y="-1" relative="1" as="geometry">
            <mxPoint x="-1" y="-52" as="offset" />
          </mxGeometry>
        </mxCell>
      </root>
    </mxGraphModel>
  </diagram>
  <diagram id="lWk7tyK1N51_tCXSE1ke" name="第 6 页">
    <mxGraphModel dx="1877" dy="1807" grid="1" gridSize="10" guides="1" tooltips="1" connect="1" arrows="1" fold="1" page="1" pageScale="1" pageWidth="827" pageHeight="1169" math="0" shadow="0">
      <root>
        <mxCell id="0" />
        <mxCell id="1" parent="0" />
        <mxCell id="VelMrYw29nvtS3iGxxvN-1" value="HelpWalkPath" style="rounded=0;whiteSpace=wrap;html=1;strokeColor=#FFFFFF;fontColor=#FFFFFF;fillColor=#182E3E;" vertex="1" parent="1">
          <mxGeometry x="180" y="30" width="120" height="60" as="geometry" />
        </mxCell>
        <mxCell id="VelMrYw29nvtS3iGxxvN-2" value="" style="html=1;points=[];perimeter=orthogonalPerimeter;fillColor=strokeColor;strokeColor=#6666FF;fontColor=#FFFFFF;" vertex="1" parent="1">
          <mxGeometry x="237.5" y="90" width="5" height="260" as="geometry" />
        </mxCell>
        <mxCell id="VelMrYw29nvtS3iGxxvN-3" style="edgeStyle=orthogonalEdgeStyle;rounded=0;orthogonalLoop=1;jettySize=auto;html=1;exitX=0.5;exitY=0.5;exitDx=0;exitDy=0;exitPerimeter=0;strokeColor=#23445D;" edge="1" parent="1" source="VelMrYw29nvtS3iGxxvN-15">
          <mxGeometry relative="1" as="geometry">
            <mxPoint y="-20.166666666666515" as="targetPoint" />
          </mxGeometry>
        </mxCell>
        <mxCell id="VelMrYw29nvtS3iGxxvN-4" value="Actor" style="shape=umlActor;verticalLabelPosition=bottom;verticalAlign=top;html=1;strokeColor=#007FFF;fontColor=#FFFFFF;fillColor=#6666FF;" vertex="1" parent="1">
          <mxGeometry x="-70" y="-50" width="30" height="60" as="geometry" />
        </mxCell>
        <mxCell id="VelMrYw29nvtS3iGxxvN-5" value="HelpCreateFile" style="rounded=0;whiteSpace=wrap;html=1;strokeColor=#FFFFFF;fontColor=#FFFFFF;fillColor=#182E3E;" vertex="1" parent="1">
          <mxGeometry x="30" y="30" width="120" height="60" as="geometry" />
        </mxCell>
        <mxCell id="VelMrYw29nvtS3iGxxvN-6" value="" style="html=1;points=[];perimeter=orthogonalPerimeter;fillColor=strokeColor;strokeColor=#6666FF;fontColor=#FFFFFF;" vertex="1" parent="1">
          <mxGeometry x="87.5" y="90" width="5" height="260" as="geometry" />
        </mxCell>
        <mxCell id="VelMrYw29nvtS3iGxxvN-7" style="edgeStyle=orthogonalEdgeStyle;rounded=0;orthogonalLoop=1;jettySize=auto;html=1;exitX=0.5;exitY=0.5;exitDx=0;exitDy=0;exitPerimeter=0;strokeColor=#9933FF;entryX=0.233;entryY=0.154;entryDx=0;entryDy=0;entryPerimeter=0;" edge="1" parent="1">
          <mxGeometry relative="1" as="geometry">
            <mxPoint x="86.34" y="110" as="sourcePoint" />
            <mxPoint x="237.50499999999997" y="110.03999999999996" as="targetPoint" />
          </mxGeometry>
        </mxCell>
        <mxCell id="VelMrYw29nvtS3iGxxvN-8" value="&lt;font color=&quot;#9933ff&quot;&gt;查找父目录&lt;br&gt;Inode&lt;/font&gt;" style="edgeLabel;html=1;align=center;verticalAlign=middle;resizable=0;points=[];fontColor=#FFFFFF;fontStyle=1" vertex="1" connectable="0" parent="VelMrYw29nvtS3iGxxvN-7">
          <mxGeometry x="0.0638" y="-1" relative="1" as="geometry">
            <mxPoint as="offset" />
          </mxGeometry>
        </mxCell>
        <mxCell id="VelMrYw29nvtS3iGxxvN-9" style="edgeStyle=orthogonalEdgeStyle;rounded=0;orthogonalLoop=1;jettySize=auto;html=1;exitX=0.5;exitY=0.5;exitDx=0;exitDy=0;exitPerimeter=0;strokeColor=#9933FF;entryX=0.367;entryY=0.419;entryDx=0;entryDy=0;entryPerimeter=0;" edge="1" parent="1">
          <mxGeometry relative="1" as="geometry">
            <mxPoint x="242.5" y="131.07999999999998" as="sourcePoint" />
            <mxPoint x="94.33500000000026" y="130.02000000000004" as="targetPoint" />
            <Array as="points">
              <mxPoint x="169" y="131" />
              <mxPoint x="169" y="130" />
            </Array>
          </mxGeometry>
        </mxCell>
        <mxCell id="VelMrYw29nvtS3iGxxvN-10" value="&lt;font color=&quot;#9933ff&quot;&gt;返回Inode号&lt;/font&gt;" style="edgeLabel;html=1;align=center;verticalAlign=middle;resizable=0;points=[];fontColor=#FFFFFF;fontStyle=1" vertex="1" connectable="0" parent="VelMrYw29nvtS3iGxxvN-9">
          <mxGeometry x="0.0638" y="-1" relative="1" as="geometry">
            <mxPoint y="1" as="offset" />
          </mxGeometry>
        </mxCell>
        <mxCell id="VelMrYw29nvtS3iGxxvN-11" style="edgeStyle=orthogonalEdgeStyle;rounded=0;orthogonalLoop=1;jettySize=auto;html=1;exitX=0.5;exitY=0;exitDx=0;exitDy=0;strokeColor=#3333FF;" edge="1" parent="1" source="VelMrYw29nvtS3iGxxvN-12" target="VelMrYw29nvtS3iGxxvN-4">
          <mxGeometry relative="1" as="geometry" />
        </mxCell>
        <mxCell id="VelMrYw29nvtS3iGxxvN-12" value="" style="ellipse;html=1;shape=endState;fillColor=strokeColor;strokeColor=#B266FF;fontColor=#FFFFFF;" vertex="1" parent="1">
          <mxGeometry x="-70" y="45" width="30" height="30" as="geometry" />
        </mxCell>
        <mxCell id="VelMrYw29nvtS3iGxxvN-13" value="" style="edgeStyle=orthogonalEdgeStyle;rounded=0;orthogonalLoop=1;jettySize=auto;html=1;exitX=0.5;exitY=0.5;exitDx=0;exitDy=0;exitPerimeter=0;strokeColor=#B266FF;" edge="1" parent="1" source="VelMrYw29nvtS3iGxxvN-4" target="VelMrYw29nvtS3iGxxvN-15">
          <mxGeometry relative="1" as="geometry">
            <mxPoint y="-20.166666666666515" as="targetPoint" />
            <mxPoint x="-55" y="-20" as="sourcePoint" />
          </mxGeometry>
        </mxCell>
        <mxCell id="VelMrYw29nvtS3iGxxvN-14" style="edgeStyle=orthogonalEdgeStyle;rounded=0;orthogonalLoop=1;jettySize=auto;html=1;exitX=0.5;exitY=1;exitDx=0;exitDy=0;entryX=0;entryY=0.5;entryDx=0;entryDy=0;strokeColor=#B266FF;" edge="1" parent="1" source="VelMrYw29nvtS3iGxxvN-15" target="VelMrYw29nvtS3iGxxvN-5">
          <mxGeometry relative="1" as="geometry" />
        </mxCell>
        <mxCell id="VelMrYw29nvtS3iGxxvN-15" value="" style="ellipse;fillColor=strokeColor;html=1;strokeColor=#B266FF;fontColor=#FFFFFF;" vertex="1" parent="1">
          <mxGeometry x="-20" y="-35" width="30" height="30" as="geometry" />
        </mxCell>
        <mxCell id="VelMrYw29nvtS3iGxxvN-16" value="" style="endArrow=none;startArrow=none;endFill=0;startFill=0;endSize=8;html=1;verticalAlign=bottom;labelBackgroundColor=none;strokeWidth=3;rounded=0;strokeColor=#CC99FF;" edge="1" parent="1">
          <mxGeometry width="160" relative="1" as="geometry">
            <mxPoint x="92.5" y="230" as="sourcePoint" />
            <mxPoint x="150" y="230" as="targetPoint" />
          </mxGeometry>
        </mxCell>
        <mxCell id="VelMrYw29nvtS3iGxxvN-17" value="" style="endArrow=none;startArrow=none;endFill=0;startFill=0;endSize=8;html=1;verticalAlign=bottom;labelBackgroundColor=none;strokeWidth=3;rounded=0;strokeColor=#CC99FF;" edge="1" parent="1">
          <mxGeometry width="160" relative="1" as="geometry">
            <mxPoint x="150" y="230" as="sourcePoint" />
            <mxPoint x="150" y="260" as="targetPoint" />
          </mxGeometry>
        </mxCell>
        <mxCell id="VelMrYw29nvtS3iGxxvN-18" style="edgeStyle=orthogonalEdgeStyle;rounded=0;orthogonalLoop=1;jettySize=auto;html=1;strokeColor=#CC99FF;strokeWidth=2;entryX=0.9;entryY=0.653;entryDx=0;entryDy=0;entryPerimeter=0;" edge="1" parent="1" target="VelMrYw29nvtS3iGxxvN-6">
          <mxGeometry relative="1" as="geometry">
            <mxPoint x="150" y="260" as="sourcePoint" />
            <mxPoint x="110" y="270" as="targetPoint" />
          </mxGeometry>
        </mxCell>
        <mxCell id="VelMrYw29nvtS3iGxxvN-19" value="&lt;font style=&quot;font-size: 10px;&quot; color=&quot;#9933ff&quot;&gt;写入文件头到磁盘&lt;br&gt;修改父目录&lt;br&gt;&lt;/font&gt;" style="edgeLabel;html=1;align=center;verticalAlign=middle;resizable=0;points=[];fontColor=#FFFFFF;fontStyle=1" vertex="1" connectable="0" parent="VelMrYw29nvtS3iGxxvN-18">
          <mxGeometry x="-0.2449" y="-2" relative="1" as="geometry">
            <mxPoint x="22" y="22" as="offset" />
          </mxGeometry>
        </mxCell>
        <mxCell id="VelMrYw29nvtS3iGxxvN-20" value="getBitmapValue" style="rounded=0;whiteSpace=wrap;html=1;strokeColor=#FFFFFF;fontColor=#FFFFFF;fillColor=#182E3E;" vertex="1" parent="1">
          <mxGeometry x="330" y="30" width="120" height="60" as="geometry" />
        </mxCell>
        <mxCell id="VelMrYw29nvtS3iGxxvN-21" value="" style="html=1;points=[];perimeter=orthogonalPerimeter;fillColor=strokeColor;strokeColor=#6666FF;fontColor=#FFFFFF;" vertex="1" parent="1">
          <mxGeometry x="387.5" y="90" width="5" height="260" as="geometry" />
        </mxCell>
        <mxCell id="VelMrYw29nvtS3iGxxvN-22" value="setBitmapValue" style="rounded=0;whiteSpace=wrap;html=1;strokeColor=#FFFFFF;fontColor=#FFFFFF;fillColor=#182E3E;" vertex="1" parent="1">
          <mxGeometry x="480" y="30" width="120" height="60" as="geometry" />
        </mxCell>
        <mxCell id="VelMrYw29nvtS3iGxxvN-23" value="" style="html=1;points=[];perimeter=orthogonalPerimeter;fillColor=strokeColor;strokeColor=#6666FF;fontColor=#FFFFFF;" vertex="1" parent="1">
          <mxGeometry x="537.5" y="90" width="5" height="260" as="geometry" />
        </mxCell>
        <mxCell id="VelMrYw29nvtS3iGxxvN-24" style="edgeStyle=orthogonalEdgeStyle;rounded=0;orthogonalLoop=1;jettySize=auto;html=1;exitX=0.5;exitY=0.5;exitDx=0;exitDy=0;exitPerimeter=0;strokeColor=#9933FF;entryX=0.1;entryY=0.348;entryDx=0;entryDy=0;entryPerimeter=0;" edge="1" parent="1" target="VelMrYw29nvtS3iGxxvN-21">
          <mxGeometry relative="1" as="geometry">
            <mxPoint x="87.5" y="180" as="sourcePoint" />
            <mxPoint x="239" y="180" as="targetPoint" />
          </mxGeometry>
        </mxCell>
        <mxCell id="VelMrYw29nvtS3iGxxvN-25" value="&lt;font color=&quot;#9933ff&quot;&gt;通过位图查找可用块（Inode、文件头数据区）&lt;/font&gt;" style="edgeLabel;html=1;align=center;verticalAlign=middle;resizable=0;points=[];fontColor=#FFFFFF;fontStyle=1" vertex="1" connectable="0" parent="VelMrYw29nvtS3iGxxvN-24">
          <mxGeometry x="0.0638" y="-1" relative="1" as="geometry">
            <mxPoint as="offset" />
          </mxGeometry>
        </mxCell>
        <mxCell id="VelMrYw29nvtS3iGxxvN-26" style="edgeStyle=orthogonalEdgeStyle;rounded=0;orthogonalLoop=1;jettySize=auto;html=1;exitX=-0.167;exitY=0.466;exitDx=0;exitDy=0;exitPerimeter=0;strokeColor=#9933FF;entryX=0.367;entryY=0.419;entryDx=0;entryDy=0;entryPerimeter=0;" edge="1" parent="1" source="VelMrYw29nvtS3iGxxvN-21">
          <mxGeometry relative="1" as="geometry">
            <mxPoint x="242.5" y="211.07999999999998" as="sourcePoint" />
            <mxPoint x="94.33500000000026" y="210.02000000000004" as="targetPoint" />
            <Array as="points">
              <mxPoint x="387" y="210" />
            </Array>
          </mxGeometry>
        </mxCell>
        <mxCell id="VelMrYw29nvtS3iGxxvN-27" value="&lt;font color=&quot;#9933ff&quot;&gt;返回块号&lt;/font&gt;" style="edgeLabel;html=1;align=center;verticalAlign=middle;resizable=0;points=[];fontColor=#FFFFFF;fontStyle=1" vertex="1" connectable="0" parent="VelMrYw29nvtS3iGxxvN-26">
          <mxGeometry x="0.0638" y="-1" relative="1" as="geometry">
            <mxPoint y="1" as="offset" />
          </mxGeometry>
        </mxCell>
        <mxCell id="VelMrYw29nvtS3iGxxvN-28" style="edgeStyle=orthogonalEdgeStyle;rounded=0;orthogonalLoop=1;jettySize=auto;html=1;exitX=0.5;exitY=0.5;exitDx=0;exitDy=0;exitPerimeter=0;strokeColor=#9933FF;entryX=0.233;entryY=0.851;entryDx=0;entryDy=0;entryPerimeter=0;" edge="1" parent="1" target="VelMrYw29nvtS3iGxxvN-23">
          <mxGeometry relative="1" as="geometry">
            <mxPoint x="92.5" y="310" as="sourcePoint" />
            <mxPoint x="244" y="310" as="targetPoint" />
          </mxGeometry>
        </mxCell>
        <mxCell id="VelMrYw29nvtS3iGxxvN-29" value="&lt;font color=&quot;#9933ff&quot;&gt;设置位图值&lt;/font&gt;" style="edgeLabel;html=1;align=center;verticalAlign=middle;resizable=0;points=[];fontColor=#FFFFFF;fontStyle=1" vertex="1" connectable="0" parent="VelMrYw29nvtS3iGxxvN-28">
          <mxGeometry x="0.0638" y="-1" relative="1" as="geometry">
            <mxPoint as="offset" />
          </mxGeometry>
        </mxCell>
        <mxCell id="VelMrYw29nvtS3iGxxvN-30" style="edgeStyle=orthogonalEdgeStyle;rounded=0;orthogonalLoop=1;jettySize=auto;html=1;exitX=0.5;exitY=0.5;exitDx=0;exitDy=0;exitPerimeter=0;strokeColor=#9933FF;entryX=0.5;entryY=1;entryDx=0;entryDy=0;" edge="1" parent="1" target="VelMrYw29nvtS3iGxxvN-12">
          <mxGeometry relative="1" as="geometry">
            <mxPoint x="87.5" y="331.08" as="sourcePoint" />
            <mxPoint x="-60.664999999999736" y="330.02000000000004" as="targetPoint" />
            <Array as="points">
              <mxPoint x="-55" y="331" />
            </Array>
          </mxGeometry>
        </mxCell>
        <mxCell id="IYanSmlyL-I2n9fti3EX-1" value="" style="endArrow=none;startArrow=none;endFill=0;startFill=0;endSize=8;html=1;verticalAlign=bottom;labelBackgroundColor=none;strokeWidth=3;rounded=0;strokeColor=#CC99FF;" edge="1" parent="1">
          <mxGeometry width="160" relative="1" as="geometry">
            <mxPoint x="88" y="140" as="sourcePoint" />
            <mxPoint x="145.5" y="140" as="targetPoint" />
          </mxGeometry>
        </mxCell>
        <mxCell id="IYanSmlyL-I2n9fti3EX-2" value="" style="endArrow=none;startArrow=none;endFill=0;startFill=0;endSize=8;html=1;verticalAlign=bottom;labelBackgroundColor=none;strokeWidth=3;rounded=0;strokeColor=#CC99FF;" edge="1" parent="1">
          <mxGeometry width="160" relative="1" as="geometry">
            <mxPoint x="145.5" y="140" as="sourcePoint" />
            <mxPoint x="145.5" y="170" as="targetPoint" />
          </mxGeometry>
        </mxCell>
        <mxCell id="IYanSmlyL-I2n9fti3EX-3" style="edgeStyle=orthogonalEdgeStyle;rounded=0;orthogonalLoop=1;jettySize=auto;html=1;strokeColor=#CC99FF;strokeWidth=2;entryX=0.9;entryY=0.653;entryDx=0;entryDy=0;entryPerimeter=0;" edge="1" parent="1">
          <mxGeometry relative="1" as="geometry">
            <mxPoint x="145.5" y="170" as="sourcePoint" />
            <mxPoint x="87.5" y="170" as="targetPoint" />
          </mxGeometry>
        </mxCell>
        <mxCell id="IYanSmlyL-I2n9fti3EX-4" value="&lt;font style=&quot;font-size: 10px;&quot; color=&quot;#9933ff&quot;&gt;查找可用的子文件位置&lt;br&gt;&lt;/font&gt;" style="edgeLabel;html=1;align=center;verticalAlign=middle;resizable=0;points=[];fontColor=#FFFFFF;fontStyle=1" vertex="1" connectable="0" parent="IYanSmlyL-I2n9fti3EX-3">
          <mxGeometry x="-0.2449" y="-2" relative="1" as="geometry">
            <mxPoint x="27" y="-13" as="offset" />
          </mxGeometry>
        </mxCell>
        <mxCell id="DdQ03oOq8ceJdskcQOFB-4" style="edgeStyle=orthogonalEdgeStyle;rounded=0;orthogonalLoop=1;jettySize=auto;html=1;exitX=0.5;exitY=0;exitDx=0;exitDy=0;entryX=0;entryY=0.5;entryDx=0;entryDy=0;strokeColor=#23445D;" edge="1" parent="1" source="DdQ03oOq8ceJdskcQOFB-1" target="DdQ03oOq8ceJdskcQOFB-2">
          <mxGeometry relative="1" as="geometry" />
        </mxCell>
        <mxCell id="DdQ03oOq8ceJdskcQOFB-1" value="SFS_mknod" style="rounded=0;whiteSpace=wrap;html=1;strokeColor=#FFFFFF;fontColor=#FFFFFF;fillColor=#182E3E;" vertex="1" parent="1">
          <mxGeometry x="40" y="530" width="120" height="60" as="geometry" />
        </mxCell>
        <mxCell id="DdQ03oOq8ceJdskcQOFB-2" value="HelpCreateFile" style="rounded=0;whiteSpace=wrap;html=1;strokeColor=#FFFFFF;fontColor=#FFFFFF;fillColor=#182E3E;" vertex="1" parent="1">
          <mxGeometry x="160" y="420" width="120" height="60" as="geometry" />
        </mxCell>
        <mxCell id="DdQ03oOq8ceJdskcQOFB-5" style="edgeStyle=orthogonalEdgeStyle;rounded=0;orthogonalLoop=1;jettySize=auto;html=1;exitX=0.5;exitY=0;exitDx=0;exitDy=0;entryX=1;entryY=0.5;entryDx=0;entryDy=0;strokeColor=#23445D;" edge="1" parent="1" source="DdQ03oOq8ceJdskcQOFB-3" target="DdQ03oOq8ceJdskcQOFB-2">
          <mxGeometry relative="1" as="geometry" />
        </mxCell>
        <mxCell id="DdQ03oOq8ceJdskcQOFB-3" value="SFS_create" style="rounded=0;whiteSpace=wrap;html=1;strokeColor=#FFFFFF;fontColor=#FFFFFF;fillColor=#182E3E;" vertex="1" parent="1">
          <mxGeometry x="280" y="530" width="120" height="60" as="geometry" />
        </mxCell>
        <mxCell id="DdQ03oOq8ceJdskcQOFB-6" value="使用&lt;br&gt;mknod filename c 0 0 &lt;br&gt;创建字符设备文件" style="text;html=1;strokeColor=none;fillColor=none;align=center;verticalAlign=middle;whiteSpace=wrap;rounded=0;fontColor=#3333FF;" vertex="1" parent="1">
          <mxGeometry x="-5" y="610" width="210" height="70" as="geometry" />
        </mxCell>
        <mxCell id="DdQ03oOq8ceJdskcQOFB-7" value="使用&lt;br&gt;touch filename &lt;br&gt;echo &quot;...&quot; &amp;gt; filename&lt;br&gt;等命令创建普通文件" style="text;html=1;strokeColor=none;fillColor=none;align=center;verticalAlign=middle;whiteSpace=wrap;rounded=0;fontColor=#3333FF;" vertex="1" parent="1">
          <mxGeometry x="240" y="610" width="210" height="70" as="geometry" />
        </mxCell>
      </root>
    </mxGraphModel>
  </diagram>
  <diagram id="fLr5RXbky-GZOw5tuugU" name="第 7 页">
    <mxGraphModel dx="1877" dy="1807" grid="1" gridSize="10" guides="1" tooltips="1" connect="1" arrows="1" fold="1" page="1" pageScale="1" pageWidth="827" pageHeight="1169" math="0" shadow="0">
      <root>
        <mxCell id="0" />
        <mxCell id="1" parent="0" />
        <mxCell id="zcE6KcgoDT7mFV_rRVAz-1" value="HelpWalkPath" style="rounded=0;whiteSpace=wrap;html=1;strokeColor=#FFFFFF;fontColor=#FFFFFF;fillColor=#182E3E;" vertex="1" parent="1">
          <mxGeometry x="180" y="30" width="120" height="60" as="geometry" />
        </mxCell>
        <mxCell id="zcE6KcgoDT7mFV_rRVAz-2" value="" style="html=1;points=[];perimeter=orthogonalPerimeter;fillColor=strokeColor;strokeColor=#6666FF;fontColor=#FFFFFF;" vertex="1" parent="1">
          <mxGeometry x="237.5" y="90" width="5" height="260" as="geometry" />
        </mxCell>
        <mxCell id="zcE6KcgoDT7mFV_rRVAz-3" style="edgeStyle=orthogonalEdgeStyle;rounded=0;orthogonalLoop=1;jettySize=auto;html=1;exitX=0.5;exitY=0.5;exitDx=0;exitDy=0;exitPerimeter=0;strokeColor=#23445D;" edge="1" parent="1" source="zcE6KcgoDT7mFV_rRVAz-15">
          <mxGeometry relative="1" as="geometry">
            <mxPoint y="-20.166666666666515" as="targetPoint" />
          </mxGeometry>
        </mxCell>
        <mxCell id="zcE6KcgoDT7mFV_rRVAz-4" value="Actor" style="shape=umlActor;verticalLabelPosition=bottom;verticalAlign=top;html=1;strokeColor=#007FFF;fontColor=#FFFFFF;fillColor=#6666FF;" vertex="1" parent="1">
          <mxGeometry x="-70" y="-50" width="30" height="60" as="geometry" />
        </mxCell>
        <mxCell id="zcE6KcgoDT7mFV_rRVAz-5" value="SFS_utimens" style="rounded=0;whiteSpace=wrap;html=1;strokeColor=#FFFFFF;fontColor=#FFFFFF;fillColor=#182E3E;" vertex="1" parent="1">
          <mxGeometry x="30" y="30" width="120" height="60" as="geometry" />
        </mxCell>
        <mxCell id="zcE6KcgoDT7mFV_rRVAz-6" value="" style="html=1;points=[];perimeter=orthogonalPerimeter;fillColor=strokeColor;strokeColor=#6666FF;fontColor=#FFFFFF;" vertex="1" parent="1">
          <mxGeometry x="87.5" y="90" width="5" height="260" as="geometry" />
        </mxCell>
        <mxCell id="zcE6KcgoDT7mFV_rRVAz-7" style="edgeStyle=orthogonalEdgeStyle;rounded=0;orthogonalLoop=1;jettySize=auto;html=1;exitX=0.5;exitY=0.5;exitDx=0;exitDy=0;exitPerimeter=0;strokeColor=#9933FF;entryX=0.233;entryY=0.154;entryDx=0;entryDy=0;entryPerimeter=0;" edge="1" parent="1">
          <mxGeometry relative="1" as="geometry">
            <mxPoint x="86.34" y="110" as="sourcePoint" />
            <mxPoint x="237.50499999999997" y="110.03999999999996" as="targetPoint" />
          </mxGeometry>
        </mxCell>
        <mxCell id="zcE6KcgoDT7mFV_rRVAz-8" value="&lt;font color=&quot;#9933ff&quot;&gt;查找文件&lt;br&gt;Inode&lt;/font&gt;" style="edgeLabel;html=1;align=center;verticalAlign=middle;resizable=0;points=[];fontColor=#FFFFFF;fontStyle=1" vertex="1" connectable="0" parent="zcE6KcgoDT7mFV_rRVAz-7">
          <mxGeometry x="0.0638" y="-1" relative="1" as="geometry">
            <mxPoint as="offset" />
          </mxGeometry>
        </mxCell>
        <mxCell id="zcE6KcgoDT7mFV_rRVAz-9" style="edgeStyle=orthogonalEdgeStyle;rounded=0;orthogonalLoop=1;jettySize=auto;html=1;exitX=0.5;exitY=0.5;exitDx=0;exitDy=0;exitPerimeter=0;strokeColor=#9933FF;entryX=0.367;entryY=0.419;entryDx=0;entryDy=0;entryPerimeter=0;" edge="1" parent="1">
          <mxGeometry relative="1" as="geometry">
            <mxPoint x="242.5" y="141.07999999999998" as="sourcePoint" />
            <mxPoint x="94.33500000000026" y="140.02000000000004" as="targetPoint" />
            <Array as="points">
              <mxPoint x="169" y="141" />
              <mxPoint x="169" y="140" />
            </Array>
          </mxGeometry>
        </mxCell>
        <mxCell id="zcE6KcgoDT7mFV_rRVAz-10" value="&lt;font color=&quot;#9933ff&quot;&gt;返回Inode号&lt;/font&gt;" style="edgeLabel;html=1;align=center;verticalAlign=middle;resizable=0;points=[];fontColor=#FFFFFF;fontStyle=1" vertex="1" connectable="0" parent="zcE6KcgoDT7mFV_rRVAz-9">
          <mxGeometry x="0.0638" y="-1" relative="1" as="geometry">
            <mxPoint y="1" as="offset" />
          </mxGeometry>
        </mxCell>
        <mxCell id="zcE6KcgoDT7mFV_rRVAz-11" style="edgeStyle=orthogonalEdgeStyle;rounded=0;orthogonalLoop=1;jettySize=auto;html=1;exitX=0.5;exitY=0;exitDx=0;exitDy=0;strokeColor=#3333FF;" edge="1" parent="1" source="zcE6KcgoDT7mFV_rRVAz-12" target="zcE6KcgoDT7mFV_rRVAz-4">
          <mxGeometry relative="1" as="geometry" />
        </mxCell>
        <mxCell id="zcE6KcgoDT7mFV_rRVAz-12" value="" style="ellipse;html=1;shape=endState;fillColor=strokeColor;strokeColor=#B266FF;fontColor=#FFFFFF;" vertex="1" parent="1">
          <mxGeometry x="-70" y="45" width="30" height="30" as="geometry" />
        </mxCell>
        <mxCell id="zcE6KcgoDT7mFV_rRVAz-13" value="" style="edgeStyle=orthogonalEdgeStyle;rounded=0;orthogonalLoop=1;jettySize=auto;html=1;exitX=0.5;exitY=0.5;exitDx=0;exitDy=0;exitPerimeter=0;strokeColor=#B266FF;" edge="1" parent="1" source="zcE6KcgoDT7mFV_rRVAz-4" target="zcE6KcgoDT7mFV_rRVAz-15">
          <mxGeometry relative="1" as="geometry">
            <mxPoint y="-20.166666666666515" as="targetPoint" />
            <mxPoint x="-55" y="-20" as="sourcePoint" />
          </mxGeometry>
        </mxCell>
        <mxCell id="zcE6KcgoDT7mFV_rRVAz-14" style="edgeStyle=orthogonalEdgeStyle;rounded=0;orthogonalLoop=1;jettySize=auto;html=1;exitX=0.5;exitY=1;exitDx=0;exitDy=0;entryX=0;entryY=0.5;entryDx=0;entryDy=0;strokeColor=#B266FF;" edge="1" parent="1" source="zcE6KcgoDT7mFV_rRVAz-15" target="zcE6KcgoDT7mFV_rRVAz-5">
          <mxGeometry relative="1" as="geometry" />
        </mxCell>
        <mxCell id="zcE6KcgoDT7mFV_rRVAz-15" value="" style="ellipse;fillColor=strokeColor;html=1;strokeColor=#B266FF;fontColor=#FFFFFF;" vertex="1" parent="1">
          <mxGeometry x="-20" y="-35" width="30" height="30" as="geometry" />
        </mxCell>
        <mxCell id="zcE6KcgoDT7mFV_rRVAz-16" value="" style="endArrow=none;startArrow=none;endFill=0;startFill=0;endSize=8;html=1;verticalAlign=bottom;labelBackgroundColor=none;strokeWidth=3;rounded=0;strokeColor=#CC99FF;" edge="1" parent="1">
          <mxGeometry width="160" relative="1" as="geometry">
            <mxPoint x="91.5" y="170" as="sourcePoint" />
            <mxPoint x="149" y="170" as="targetPoint" />
          </mxGeometry>
        </mxCell>
        <mxCell id="zcE6KcgoDT7mFV_rRVAz-17" value="" style="endArrow=none;startArrow=none;endFill=0;startFill=0;endSize=8;html=1;verticalAlign=bottom;labelBackgroundColor=none;strokeWidth=3;rounded=0;strokeColor=#CC99FF;" edge="1" parent="1">
          <mxGeometry width="160" relative="1" as="geometry">
            <mxPoint x="149" y="170" as="sourcePoint" />
            <mxPoint x="149" y="200" as="targetPoint" />
          </mxGeometry>
        </mxCell>
        <mxCell id="zcE6KcgoDT7mFV_rRVAz-18" style="edgeStyle=orthogonalEdgeStyle;rounded=0;orthogonalLoop=1;jettySize=auto;html=1;strokeColor=#CC99FF;strokeWidth=2;entryX=0.9;entryY=0.653;entryDx=0;entryDy=0;entryPerimeter=0;" edge="1" parent="1">
          <mxGeometry relative="1" as="geometry">
            <mxPoint x="149" y="200" as="sourcePoint" />
            <mxPoint x="91" y="199.7800000000002" as="targetPoint" />
          </mxGeometry>
        </mxCell>
        <mxCell id="zcE6KcgoDT7mFV_rRVAz-19" value="&lt;font style=&quot;font-size: 10px;&quot; color=&quot;#9933ff&quot;&gt;修改Inode&lt;br&gt;的访问时间&lt;br&gt;&lt;/font&gt;" style="edgeLabel;html=1;align=center;verticalAlign=middle;resizable=0;points=[];fontColor=#FFFFFF;fontStyle=1" vertex="1" connectable="0" parent="zcE6KcgoDT7mFV_rRVAz-18">
          <mxGeometry x="-0.2449" y="-2" relative="1" as="geometry">
            <mxPoint x="22" y="22" as="offset" />
          </mxGeometry>
        </mxCell>
        <mxCell id="zcE6KcgoDT7mFV_rRVAz-38" value="&lt;font style=&quot;font-size: 10px;&quot; color=&quot;#9933ff&quot;&gt;写回磁盘&lt;br&gt;&lt;/font&gt;" style="edgeLabel;html=1;align=center;verticalAlign=middle;resizable=0;points=[];fontColor=#FFFFFF;fontStyle=1" vertex="1" connectable="0" parent="zcE6KcgoDT7mFV_rRVAz-18">
          <mxGeometry x="-0.2449" y="-2" relative="1" as="geometry">
            <mxPoint x="-207" y="2" as="offset" />
          </mxGeometry>
        </mxCell>
        <mxCell id="zcE6KcgoDT7mFV_rRVAz-30" style="edgeStyle=orthogonalEdgeStyle;rounded=0;orthogonalLoop=1;jettySize=auto;html=1;exitX=0.5;exitY=0.5;exitDx=0;exitDy=0;exitPerimeter=0;strokeColor=#9933FF;entryX=0.5;entryY=1;entryDx=0;entryDy=0;" edge="1" parent="1" target="zcE6KcgoDT7mFV_rRVAz-12">
          <mxGeometry relative="1" as="geometry">
            <mxPoint x="87.5" y="331.08" as="sourcePoint" />
            <mxPoint x="-60.664999999999736" y="330.02000000000004" as="targetPoint" />
            <Array as="points">
              <mxPoint x="-55" y="331" />
            </Array>
          </mxGeometry>
        </mxCell>
      </root>
    </mxGraphModel>
  </diagram>
  <diagram id="Scir8_H420iqqGvK7YdY" name="第 8 页">
    <mxGraphModel dx="1702" dy="1701" grid="1" gridSize="10" guides="1" tooltips="1" connect="1" arrows="1" fold="1" page="1" pageScale="1" pageWidth="827" pageHeight="1169" math="0" shadow="0">
      <root>
        <mxCell id="0" />
        <mxCell id="1" parent="0" />
        <mxCell id="aU67_TRBF6h1hzkp1aBG-1" value="HelpWalkPath" style="rounded=0;whiteSpace=wrap;html=1;strokeColor=#FFFFFF;fontColor=#FFFFFF;fillColor=#182E3E;" vertex="1" parent="1">
          <mxGeometry x="180" y="30" width="120" height="60" as="geometry" />
        </mxCell>
        <mxCell id="aU67_TRBF6h1hzkp1aBG-2" value="" style="html=1;points=[];perimeter=orthogonalPerimeter;fillColor=strokeColor;strokeColor=#6666FF;fontColor=#FFFFFF;" vertex="1" parent="1">
          <mxGeometry x="237.5" y="90" width="5" height="260" as="geometry" />
        </mxCell>
        <mxCell id="aU67_TRBF6h1hzkp1aBG-3" style="edgeStyle=orthogonalEdgeStyle;rounded=0;orthogonalLoop=1;jettySize=auto;html=1;exitX=0.5;exitY=0.5;exitDx=0;exitDy=0;exitPerimeter=0;strokeColor=#23445D;" edge="1" parent="1" source="aU67_TRBF6h1hzkp1aBG-15">
          <mxGeometry relative="1" as="geometry">
            <mxPoint y="-20.166666666666515" as="targetPoint" />
          </mxGeometry>
        </mxCell>
        <mxCell id="aU67_TRBF6h1hzkp1aBG-4" value="Actor" style="shape=umlActor;verticalLabelPosition=bottom;verticalAlign=top;html=1;strokeColor=#007FFF;fontColor=#FFFFFF;fillColor=#6666FF;" vertex="1" parent="1">
          <mxGeometry x="-70" y="-50" width="30" height="60" as="geometry" />
        </mxCell>
        <mxCell id="aU67_TRBF6h1hzkp1aBG-5" value="SFS_unlink" style="rounded=0;whiteSpace=wrap;html=1;strokeColor=#FFFFFF;fontColor=#FFFFFF;fillColor=#182E3E;" vertex="1" parent="1">
          <mxGeometry x="30" y="30" width="120" height="60" as="geometry" />
        </mxCell>
        <mxCell id="aU67_TRBF6h1hzkp1aBG-6" value="" style="html=1;points=[];perimeter=orthogonalPerimeter;fillColor=strokeColor;strokeColor=#6666FF;fontColor=#FFFFFF;" vertex="1" parent="1">
          <mxGeometry x="87.5" y="90" width="5" height="260" as="geometry" />
        </mxCell>
        <mxCell id="aU67_TRBF6h1hzkp1aBG-7" style="edgeStyle=orthogonalEdgeStyle;rounded=0;orthogonalLoop=1;jettySize=auto;html=1;exitX=0.5;exitY=0.5;exitDx=0;exitDy=0;exitPerimeter=0;strokeColor=#9933FF;entryX=0.233;entryY=0.154;entryDx=0;entryDy=0;entryPerimeter=0;" edge="1" parent="1" target="aU67_TRBF6h1hzkp1aBG-2">
          <mxGeometry relative="1" as="geometry">
            <mxPoint x="87.5" y="130" as="sourcePoint" />
            <mxPoint x="170" y="150" as="targetPoint" />
          </mxGeometry>
        </mxCell>
        <mxCell id="aU67_TRBF6h1hzkp1aBG-8" value="&lt;font color=&quot;#9933ff&quot;&gt;查找文件、父目录&lt;br&gt;Inode&lt;/font&gt;" style="edgeLabel;html=1;align=center;verticalAlign=middle;resizable=0;points=[];fontColor=#FFFFFF;fontStyle=1" vertex="1" connectable="0" parent="aU67_TRBF6h1hzkp1aBG-7">
          <mxGeometry x="0.0638" y="-1" relative="1" as="geometry">
            <mxPoint as="offset" />
          </mxGeometry>
        </mxCell>
        <mxCell id="aU67_TRBF6h1hzkp1aBG-9" style="edgeStyle=orthogonalEdgeStyle;rounded=0;orthogonalLoop=1;jettySize=auto;html=1;exitX=0.5;exitY=0.5;exitDx=0;exitDy=0;exitPerimeter=0;strokeColor=#9933FF;entryX=0.367;entryY=0.419;entryDx=0;entryDy=0;entryPerimeter=0;" edge="1" parent="1">
          <mxGeometry relative="1" as="geometry">
            <mxPoint x="242.5" y="161.07999999999998" as="sourcePoint" />
            <mxPoint x="94.33500000000026" y="160.02000000000004" as="targetPoint" />
            <Array as="points">
              <mxPoint x="169" y="161" />
              <mxPoint x="169" y="160" />
            </Array>
          </mxGeometry>
        </mxCell>
        <mxCell id="aU67_TRBF6h1hzkp1aBG-10" value="&lt;font color=&quot;#9933ff&quot;&gt;返回Inode号&lt;/font&gt;" style="edgeLabel;html=1;align=center;verticalAlign=middle;resizable=0;points=[];fontColor=#FFFFFF;fontStyle=1" vertex="1" connectable="0" parent="aU67_TRBF6h1hzkp1aBG-9">
          <mxGeometry x="0.0638" y="-1" relative="1" as="geometry">
            <mxPoint y="1" as="offset" />
          </mxGeometry>
        </mxCell>
        <mxCell id="aU67_TRBF6h1hzkp1aBG-11" style="edgeStyle=orthogonalEdgeStyle;rounded=0;orthogonalLoop=1;jettySize=auto;html=1;exitX=0.5;exitY=0;exitDx=0;exitDy=0;strokeColor=#3333FF;" edge="1" parent="1" source="aU67_TRBF6h1hzkp1aBG-12" target="aU67_TRBF6h1hzkp1aBG-4">
          <mxGeometry relative="1" as="geometry" />
        </mxCell>
        <mxCell id="aU67_TRBF6h1hzkp1aBG-12" value="" style="ellipse;html=1;shape=endState;fillColor=strokeColor;strokeColor=#B266FF;fontColor=#FFFFFF;" vertex="1" parent="1">
          <mxGeometry x="-70" y="45" width="30" height="30" as="geometry" />
        </mxCell>
        <mxCell id="aU67_TRBF6h1hzkp1aBG-13" value="" style="edgeStyle=orthogonalEdgeStyle;rounded=0;orthogonalLoop=1;jettySize=auto;html=1;exitX=0.5;exitY=0.5;exitDx=0;exitDy=0;exitPerimeter=0;strokeColor=#B266FF;" edge="1" parent="1" source="aU67_TRBF6h1hzkp1aBG-4" target="aU67_TRBF6h1hzkp1aBG-15">
          <mxGeometry relative="1" as="geometry">
            <mxPoint y="-20.166666666666515" as="targetPoint" />
            <mxPoint x="-55" y="-20" as="sourcePoint" />
          </mxGeometry>
        </mxCell>
        <mxCell id="aU67_TRBF6h1hzkp1aBG-14" style="edgeStyle=orthogonalEdgeStyle;rounded=0;orthogonalLoop=1;jettySize=auto;html=1;exitX=0.5;exitY=1;exitDx=0;exitDy=0;entryX=0;entryY=0.5;entryDx=0;entryDy=0;strokeColor=#B266FF;" edge="1" parent="1" source="aU67_TRBF6h1hzkp1aBG-15" target="aU67_TRBF6h1hzkp1aBG-5">
          <mxGeometry relative="1" as="geometry" />
        </mxCell>
        <mxCell id="aU67_TRBF6h1hzkp1aBG-15" value="" style="ellipse;fillColor=strokeColor;html=1;strokeColor=#B266FF;fontColor=#FFFFFF;" vertex="1" parent="1">
          <mxGeometry x="-20" y="-35" width="30" height="30" as="geometry" />
        </mxCell>
        <mxCell id="aU67_TRBF6h1hzkp1aBG-16" value="" style="endArrow=none;startArrow=none;endFill=0;startFill=0;endSize=8;html=1;verticalAlign=bottom;labelBackgroundColor=none;strokeWidth=3;rounded=0;strokeColor=#CC99FF;" edge="1" parent="1">
          <mxGeometry width="160" relative="1" as="geometry">
            <mxPoint x="93" y="190" as="sourcePoint" />
            <mxPoint x="150.5" y="190" as="targetPoint" />
          </mxGeometry>
        </mxCell>
        <mxCell id="aU67_TRBF6h1hzkp1aBG-17" value="" style="endArrow=none;startArrow=none;endFill=0;startFill=0;endSize=8;html=1;verticalAlign=bottom;labelBackgroundColor=none;strokeWidth=3;rounded=0;strokeColor=#CC99FF;" edge="1" parent="1">
          <mxGeometry width="160" relative="1" as="geometry">
            <mxPoint x="150.5" y="190" as="sourcePoint" />
            <mxPoint x="150.5" y="220" as="targetPoint" />
          </mxGeometry>
        </mxCell>
        <mxCell id="aU67_TRBF6h1hzkp1aBG-18" style="edgeStyle=orthogonalEdgeStyle;rounded=0;orthogonalLoop=1;jettySize=auto;html=1;strokeColor=#CC99FF;strokeWidth=2;entryX=0.9;entryY=0.653;entryDx=0;entryDy=0;entryPerimeter=0;" edge="1" parent="1">
          <mxGeometry relative="1" as="geometry">
            <mxPoint x="150.5" y="220" as="sourcePoint" />
            <mxPoint x="92.50000000000023" y="219.77999999999975" as="targetPoint" />
          </mxGeometry>
        </mxCell>
        <mxCell id="aU67_TRBF6h1hzkp1aBG-19" value="&lt;font style=&quot;font-size: 10px;&quot; color=&quot;#9933ff&quot;&gt;删除本文件 Inode&lt;br&gt;清空文件对应磁盘块中的 fileObj 结构，&lt;br&gt;修改父目录&lt;br&gt;dentry.childInodeNo&lt;br&gt;&lt;/font&gt;" style="edgeLabel;html=1;align=center;verticalAlign=middle;resizable=0;points=[];fontColor=#FFFFFF;fontStyle=1" vertex="1" connectable="0" parent="aU67_TRBF6h1hzkp1aBG-18">
          <mxGeometry x="-0.2449" y="-2" relative="1" as="geometry">
            <mxPoint x="13" y="27" as="offset" />
          </mxGeometry>
        </mxCell>
        <mxCell id="aU67_TRBF6h1hzkp1aBG-22" value="setBitmapValue" style="rounded=0;whiteSpace=wrap;html=1;strokeColor=#FFFFFF;fontColor=#FFFFFF;fillColor=#182E3E;" vertex="1" parent="1">
          <mxGeometry x="340" y="30" width="120" height="60" as="geometry" />
        </mxCell>
        <mxCell id="aU67_TRBF6h1hzkp1aBG-23" value="" style="html=1;points=[];perimeter=orthogonalPerimeter;fillColor=strokeColor;strokeColor=#6666FF;fontColor=#FFFFFF;" vertex="1" parent="1">
          <mxGeometry x="397.5" y="90" width="5" height="260" as="geometry" />
        </mxCell>
        <mxCell id="aU67_TRBF6h1hzkp1aBG-28" style="edgeStyle=orthogonalEdgeStyle;rounded=0;orthogonalLoop=1;jettySize=auto;html=1;exitX=0.5;exitY=0.5;exitDx=0;exitDy=0;exitPerimeter=0;strokeColor=#9933FF;entryX=0.233;entryY=0.851;entryDx=0;entryDy=0;entryPerimeter=0;" edge="1" parent="1" target="aU67_TRBF6h1hzkp1aBG-23">
          <mxGeometry relative="1" as="geometry">
            <mxPoint x="92.5" y="310" as="sourcePoint" />
            <mxPoint x="244" y="310" as="targetPoint" />
          </mxGeometry>
        </mxCell>
        <mxCell id="aU67_TRBF6h1hzkp1aBG-29" value="&lt;font color=&quot;#9933ff&quot;&gt;修改位图值&lt;/font&gt;" style="edgeLabel;html=1;align=center;verticalAlign=middle;resizable=0;points=[];fontColor=#FFFFFF;fontStyle=1" vertex="1" connectable="0" parent="aU67_TRBF6h1hzkp1aBG-28">
          <mxGeometry x="0.0638" y="-1" relative="1" as="geometry">
            <mxPoint x="35" as="offset" />
          </mxGeometry>
        </mxCell>
        <mxCell id="aU67_TRBF6h1hzkp1aBG-30" style="edgeStyle=orthogonalEdgeStyle;rounded=0;orthogonalLoop=1;jettySize=auto;html=1;exitX=0.5;exitY=0.5;exitDx=0;exitDy=0;exitPerimeter=0;strokeColor=#9933FF;entryX=0.5;entryY=1;entryDx=0;entryDy=0;" edge="1" parent="1" target="aU67_TRBF6h1hzkp1aBG-12">
          <mxGeometry relative="1" as="geometry">
            <mxPoint x="87.5" y="331.08" as="sourcePoint" />
            <mxPoint x="-60.664999999999736" y="330.02000000000004" as="targetPoint" />
            <Array as="points">
              <mxPoint x="-55" y="331" />
            </Array>
          </mxGeometry>
        </mxCell>
        <mxCell id="aU67_TRBF6h1hzkp1aBG-31" value="&lt;font color=&quot;#9933ff&quot;&gt;写回&lt;br&gt;父目录 dentry、&lt;br&gt;Bitmap&lt;br&gt;到磁盘&lt;br&gt;&lt;/font&gt;" style="edgeLabel;html=1;align=center;verticalAlign=middle;resizable=0;points=[];fontColor=#FFFFFF;fontStyle=1" vertex="1" connectable="0" parent="aU67_TRBF6h1hzkp1aBG-30">
          <mxGeometry x="0.0638" y="-1" relative="1" as="geometry">
            <mxPoint x="-1" y="-52" as="offset" />
          </mxGeometry>
        </mxCell>
      </root>
    </mxGraphModel>
  </diagram>
  <diagram id="WvAarVYWql8NE5lXZcYq" name="第 9 页">
    <mxGraphModel dx="1877" dy="1807" grid="1" gridSize="10" guides="1" tooltips="1" connect="1" arrows="1" fold="1" page="1" pageScale="1" pageWidth="827" pageHeight="1169" math="0" shadow="0">
      <root>
        <mxCell id="0" />
        <mxCell id="1" parent="0" />
        <mxCell id="4gc8oS18SwekIg6vZ46Q-1" value="HelpWalkPath" style="rounded=0;whiteSpace=wrap;html=1;strokeColor=#FFFFFF;fontColor=#FFFFFF;fillColor=#182E3E;" vertex="1" parent="1">
          <mxGeometry x="180" y="30" width="120" height="60" as="geometry" />
        </mxCell>
        <mxCell id="4gc8oS18SwekIg6vZ46Q-2" value="" style="html=1;points=[];perimeter=orthogonalPerimeter;fillColor=strokeColor;strokeColor=#6666FF;fontColor=#FFFFFF;" vertex="1" parent="1">
          <mxGeometry x="237.5" y="90" width="5" height="260" as="geometry" />
        </mxCell>
        <mxCell id="4gc8oS18SwekIg6vZ46Q-3" style="edgeStyle=orthogonalEdgeStyle;rounded=0;orthogonalLoop=1;jettySize=auto;html=1;exitX=0.5;exitY=0.5;exitDx=0;exitDy=0;exitPerimeter=0;strokeColor=#23445D;" edge="1" parent="1" source="4gc8oS18SwekIg6vZ46Q-15">
          <mxGeometry relative="1" as="geometry">
            <mxPoint y="-20.166666666666515" as="targetPoint" />
          </mxGeometry>
        </mxCell>
        <mxCell id="4gc8oS18SwekIg6vZ46Q-4" value="Actor" style="shape=umlActor;verticalLabelPosition=bottom;verticalAlign=top;html=1;strokeColor=#007FFF;fontColor=#FFFFFF;fillColor=#6666FF;" vertex="1" parent="1">
          <mxGeometry x="-70" y="-50" width="30" height="60" as="geometry" />
        </mxCell>
        <mxCell id="4gc8oS18SwekIg6vZ46Q-5" value="SFS_read" style="rounded=0;whiteSpace=wrap;html=1;strokeColor=#FFFFFF;fontColor=#FFFFFF;fillColor=#182E3E;" vertex="1" parent="1">
          <mxGeometry x="30" y="30" width="120" height="60" as="geometry" />
        </mxCell>
        <mxCell id="4gc8oS18SwekIg6vZ46Q-6" value="" style="html=1;points=[];perimeter=orthogonalPerimeter;fillColor=strokeColor;strokeColor=#6666FF;fontColor=#FFFFFF;" vertex="1" parent="1">
          <mxGeometry x="87.5" y="90" width="5" height="260" as="geometry" />
        </mxCell>
        <mxCell id="4gc8oS18SwekIg6vZ46Q-7" style="edgeStyle=orthogonalEdgeStyle;rounded=0;orthogonalLoop=1;jettySize=auto;html=1;exitX=0.5;exitY=0.5;exitDx=0;exitDy=0;exitPerimeter=0;strokeColor=#9933FF;entryX=0.233;entryY=0.154;entryDx=0;entryDy=0;entryPerimeter=0;" edge="1" parent="1" target="4gc8oS18SwekIg6vZ46Q-2">
          <mxGeometry relative="1" as="geometry">
            <mxPoint x="87.5" y="130" as="sourcePoint" />
            <mxPoint x="170" y="150" as="targetPoint" />
          </mxGeometry>
        </mxCell>
        <mxCell id="4gc8oS18SwekIg6vZ46Q-8" value="&lt;font color=&quot;#9933ff&quot;&gt;查找文件&lt;br&gt;Inode&lt;/font&gt;" style="edgeLabel;html=1;align=center;verticalAlign=middle;resizable=0;points=[];fontColor=#FFFFFF;fontStyle=1" vertex="1" connectable="0" parent="4gc8oS18SwekIg6vZ46Q-7">
          <mxGeometry x="0.0638" y="-1" relative="1" as="geometry">
            <mxPoint as="offset" />
          </mxGeometry>
        </mxCell>
        <mxCell id="4gc8oS18SwekIg6vZ46Q-9" style="edgeStyle=orthogonalEdgeStyle;rounded=0;orthogonalLoop=1;jettySize=auto;html=1;exitX=0.5;exitY=0.5;exitDx=0;exitDy=0;exitPerimeter=0;strokeColor=#9933FF;entryX=0.367;entryY=0.419;entryDx=0;entryDy=0;entryPerimeter=0;" edge="1" parent="1">
          <mxGeometry relative="1" as="geometry">
            <mxPoint x="242.5" y="161.07999999999998" as="sourcePoint" />
            <mxPoint x="94.33500000000026" y="160.02000000000004" as="targetPoint" />
            <Array as="points">
              <mxPoint x="169" y="161" />
              <mxPoint x="169" y="160" />
            </Array>
          </mxGeometry>
        </mxCell>
        <mxCell id="4gc8oS18SwekIg6vZ46Q-10" value="&lt;font color=&quot;#9933ff&quot;&gt;返回Inode号&lt;/font&gt;" style="edgeLabel;html=1;align=center;verticalAlign=middle;resizable=0;points=[];fontColor=#FFFFFF;fontStyle=1" vertex="1" connectable="0" parent="4gc8oS18SwekIg6vZ46Q-9">
          <mxGeometry x="0.0638" y="-1" relative="1" as="geometry">
            <mxPoint y="1" as="offset" />
          </mxGeometry>
        </mxCell>
        <mxCell id="4gc8oS18SwekIg6vZ46Q-11" style="edgeStyle=orthogonalEdgeStyle;rounded=0;orthogonalLoop=1;jettySize=auto;html=1;exitX=0.5;exitY=0;exitDx=0;exitDy=0;strokeColor=#3333FF;" edge="1" parent="1" source="4gc8oS18SwekIg6vZ46Q-12" target="4gc8oS18SwekIg6vZ46Q-4">
          <mxGeometry relative="1" as="geometry" />
        </mxCell>
        <mxCell id="4gc8oS18SwekIg6vZ46Q-12" value="" style="ellipse;html=1;shape=endState;fillColor=strokeColor;strokeColor=#B266FF;fontColor=#FFFFFF;" vertex="1" parent="1">
          <mxGeometry x="-70" y="45" width="30" height="30" as="geometry" />
        </mxCell>
        <mxCell id="4gc8oS18SwekIg6vZ46Q-13" value="" style="edgeStyle=orthogonalEdgeStyle;rounded=0;orthogonalLoop=1;jettySize=auto;html=1;exitX=0.5;exitY=0.5;exitDx=0;exitDy=0;exitPerimeter=0;strokeColor=#B266FF;" edge="1" parent="1" source="4gc8oS18SwekIg6vZ46Q-4" target="4gc8oS18SwekIg6vZ46Q-15">
          <mxGeometry relative="1" as="geometry">
            <mxPoint y="-20.166666666666515" as="targetPoint" />
            <mxPoint x="-55" y="-20" as="sourcePoint" />
          </mxGeometry>
        </mxCell>
        <mxCell id="4gc8oS18SwekIg6vZ46Q-14" style="edgeStyle=orthogonalEdgeStyle;rounded=0;orthogonalLoop=1;jettySize=auto;html=1;exitX=0.5;exitY=1;exitDx=0;exitDy=0;entryX=0;entryY=0.5;entryDx=0;entryDy=0;strokeColor=#B266FF;" edge="1" parent="1" source="4gc8oS18SwekIg6vZ46Q-15" target="4gc8oS18SwekIg6vZ46Q-5">
          <mxGeometry relative="1" as="geometry" />
        </mxCell>
        <mxCell id="4gc8oS18SwekIg6vZ46Q-15" value="" style="ellipse;fillColor=strokeColor;html=1;strokeColor=#B266FF;fontColor=#FFFFFF;" vertex="1" parent="1">
          <mxGeometry x="-20" y="-35" width="30" height="30" as="geometry" />
        </mxCell>
        <mxCell id="4gc8oS18SwekIg6vZ46Q-16" value="" style="endArrow=none;startArrow=none;endFill=0;startFill=0;endSize=8;html=1;verticalAlign=bottom;labelBackgroundColor=none;strokeWidth=3;rounded=0;strokeColor=#CC99FF;" edge="1" parent="1">
          <mxGeometry width="160" relative="1" as="geometry">
            <mxPoint x="93" y="260" as="sourcePoint" />
            <mxPoint x="150.5" y="260" as="targetPoint" />
          </mxGeometry>
        </mxCell>
        <mxCell id="4gc8oS18SwekIg6vZ46Q-17" value="" style="endArrow=none;startArrow=none;endFill=0;startFill=0;endSize=8;html=1;verticalAlign=bottom;labelBackgroundColor=none;strokeWidth=3;rounded=0;strokeColor=#CC99FF;" edge="1" parent="1">
          <mxGeometry width="160" relative="1" as="geometry">
            <mxPoint x="150.5" y="260" as="sourcePoint" />
            <mxPoint x="150.5" y="290" as="targetPoint" />
          </mxGeometry>
        </mxCell>
        <mxCell id="4gc8oS18SwekIg6vZ46Q-18" style="edgeStyle=orthogonalEdgeStyle;rounded=0;orthogonalLoop=1;jettySize=auto;html=1;strokeColor=#CC99FF;strokeWidth=2;entryX=0.9;entryY=0.653;entryDx=0;entryDy=0;entryPerimeter=0;" edge="1" parent="1">
          <mxGeometry relative="1" as="geometry">
            <mxPoint x="150.5" y="290" as="sourcePoint" />
            <mxPoint x="92.50000000000023" y="289.77999999999975" as="targetPoint" />
          </mxGeometry>
        </mxCell>
        <mxCell id="4gc8oS18SwekIg6vZ46Q-28" value="&lt;font color=&quot;#b266ff&quot;&gt;&lt;b&gt;按顺序读取每一块磁盘块&lt;/b&gt;&lt;br&gt;&lt;b&gt;到 ReadCache 指向的&lt;br&gt;缓冲区&lt;/b&gt;&lt;br&gt;&lt;/font&gt;" style="edgeLabel;html=1;align=center;verticalAlign=middle;resizable=0;points=[];fontColor=#FFFFFF;" vertex="1" connectable="0" parent="4gc8oS18SwekIg6vZ46Q-18">
          <mxGeometry x="-0.4391" y="1" relative="1" as="geometry">
            <mxPoint x="26" y="29" as="offset" />
          </mxGeometry>
        </mxCell>
        <mxCell id="4gc8oS18SwekIg6vZ46Q-20" value="HelpWalkInodeTable" style="rounded=0;whiteSpace=wrap;html=1;strokeColor=#FFFFFF;fontColor=#FFFFFF;fillColor=#182E3E;" vertex="1" parent="1">
          <mxGeometry x="340" y="30" width="130" height="60" as="geometry" />
        </mxCell>
        <mxCell id="4gc8oS18SwekIg6vZ46Q-21" value="" style="html=1;points=[];perimeter=orthogonalPerimeter;fillColor=strokeColor;strokeColor=#6666FF;fontColor=#FFFFFF;" vertex="1" parent="1">
          <mxGeometry x="397.5" y="90" width="5" height="260" as="geometry" />
        </mxCell>
        <mxCell id="4gc8oS18SwekIg6vZ46Q-22" style="edgeStyle=orthogonalEdgeStyle;rounded=0;orthogonalLoop=1;jettySize=auto;html=1;exitX=0.5;exitY=0.5;exitDx=0;exitDy=0;exitPerimeter=0;strokeColor=#9933FF;entryX=0.233;entryY=0.851;entryDx=0;entryDy=0;entryPerimeter=0;" edge="1" parent="1">
          <mxGeometry relative="1" as="geometry">
            <mxPoint x="91.34" y="200" as="sourcePoint" />
            <mxPoint x="397.505" y="201.26000000000022" as="targetPoint" />
            <Array as="points">
              <mxPoint x="91.68" y="201" />
            </Array>
          </mxGeometry>
        </mxCell>
        <mxCell id="4gc8oS18SwekIg6vZ46Q-23" value="&lt;font color=&quot;#9933ff&quot;&gt;获取所有磁盘地址块号（链表形式）&lt;/font&gt;" style="edgeLabel;html=1;align=center;verticalAlign=middle;resizable=0;points=[];fontColor=#FFFFFF;fontStyle=1" vertex="1" connectable="0" parent="4gc8oS18SwekIg6vZ46Q-22">
          <mxGeometry x="0.0638" y="-1" relative="1" as="geometry">
            <mxPoint x="11" y="-2" as="offset" />
          </mxGeometry>
        </mxCell>
        <mxCell id="4gc8oS18SwekIg6vZ46Q-24" style="edgeStyle=orthogonalEdgeStyle;rounded=0;orthogonalLoop=1;jettySize=auto;html=1;exitX=0.5;exitY=0.5;exitDx=0;exitDy=0;exitPerimeter=0;strokeColor=#9933FF;entryX=0.5;entryY=1;entryDx=0;entryDy=0;" edge="1" parent="1" target="4gc8oS18SwekIg6vZ46Q-12">
          <mxGeometry relative="1" as="geometry">
            <mxPoint x="87.5" y="331.08" as="sourcePoint" />
            <mxPoint x="-60.664999999999736" y="330.02000000000004" as="targetPoint" />
            <Array as="points">
              <mxPoint x="-55" y="331" />
            </Array>
          </mxGeometry>
        </mxCell>
        <mxCell id="4gc8oS18SwekIg6vZ46Q-25" value="&lt;font color=&quot;#9933ff&quot;&gt;按需求将&lt;br&gt;ReadCache&lt;br&gt;缓冲区的内容返回给外部&lt;br&gt;&lt;/font&gt;" style="edgeLabel;html=1;align=center;verticalAlign=middle;resizable=0;points=[];fontColor=#FFFFFF;fontStyle=1" vertex="1" connectable="0" parent="4gc8oS18SwekIg6vZ46Q-24">
          <mxGeometry x="0.0638" y="-1" relative="1" as="geometry">
            <mxPoint x="-1" y="-62" as="offset" />
          </mxGeometry>
        </mxCell>
        <mxCell id="4gc8oS18SwekIg6vZ46Q-26" style="edgeStyle=orthogonalEdgeStyle;rounded=0;orthogonalLoop=1;jettySize=auto;html=1;exitX=0.5;exitY=0.5;exitDx=0;exitDy=0;exitPerimeter=0;strokeColor=#9933FF;entryX=0.7;entryY=0.575;entryDx=0;entryDy=0;entryPerimeter=0;" edge="1" parent="1" target="4gc8oS18SwekIg6vZ46Q-6">
          <mxGeometry relative="1" as="geometry">
            <mxPoint x="397.5" y="241.07999999999998" as="sourcePoint" />
            <mxPoint x="249.33500000000026" y="240.02000000000004" as="targetPoint" />
            <Array as="points">
              <mxPoint x="398" y="240" />
              <mxPoint x="324" y="240" />
            </Array>
          </mxGeometry>
        </mxCell>
        <mxCell id="4gc8oS18SwekIg6vZ46Q-27" value="&lt;font color=&quot;#9933ff&quot;&gt;返回磁盘地址块号链表&lt;/font&gt;" style="edgeLabel;html=1;align=center;verticalAlign=middle;resizable=0;points=[];fontColor=#FFFFFF;fontStyle=1" vertex="1" connectable="0" parent="4gc8oS18SwekIg6vZ46Q-26">
          <mxGeometry x="0.0638" y="-1" relative="1" as="geometry">
            <mxPoint y="1" as="offset" />
          </mxGeometry>
        </mxCell>
      </root>
    </mxGraphModel>
  </diagram>
  <diagram id="Sz_2Z2nnkm2ilhvVJLvj" name="第 10 页">
    <mxGraphModel dx="1863" dy="1792" grid="1" gridSize="10" guides="1" tooltips="1" connect="1" arrows="1" fold="1" page="1" pageScale="1" pageWidth="827" pageHeight="1169" math="0" shadow="0">
      <root>
        <mxCell id="0" />
        <mxCell id="1" parent="0" />
        <mxCell id="r6tGS5h8bFvNWabJQRKx-2" value="&lt;font color=&quot;#0000ff&quot;&gt;&lt;b&gt;Loop&lt;/b&gt;&lt;/font&gt;" style="shape=umlFrame;whiteSpace=wrap;html=1;pointerEvents=0;recursiveResize=0;container=1;collapsible=0;width=120;height=25;strokeColor=#FFCCFF;fillColor=#FFCCE6;gradientColor=none;swimlaneFillColor=#FFF4C3;" vertex="1" parent="1">
          <mxGeometry y="169.5" width="420" height="132.5" as="geometry" />
        </mxCell>
        <mxCell id="0_0dZdF44_EZMC4FOQOo-1" value="HelpWalkPath" style="rounded=0;whiteSpace=wrap;html=1;strokeColor=#FFFFFF;fontColor=#FFFFFF;fillColor=#182E3E;" parent="1" vertex="1">
          <mxGeometry x="180" y="30" width="120" height="60" as="geometry" />
        </mxCell>
        <mxCell id="0_0dZdF44_EZMC4FOQOo-2" value="" style="html=1;points=[];perimeter=orthogonalPerimeter;fillColor=strokeColor;strokeColor=#6666FF;fontColor=#FFFFFF;" parent="1" vertex="1">
          <mxGeometry x="237.5" y="90" width="5" height="260" as="geometry" />
        </mxCell>
        <mxCell id="0_0dZdF44_EZMC4FOQOo-3" style="edgeStyle=orthogonalEdgeStyle;rounded=0;orthogonalLoop=1;jettySize=auto;html=1;exitX=0.5;exitY=0.5;exitDx=0;exitDy=0;exitPerimeter=0;strokeColor=#23445D;" parent="1" source="0_0dZdF44_EZMC4FOQOo-15" edge="1">
          <mxGeometry relative="1" as="geometry">
            <mxPoint y="-20.166666666666515" as="targetPoint" />
          </mxGeometry>
        </mxCell>
        <mxCell id="0_0dZdF44_EZMC4FOQOo-4" value="Actor" style="shape=umlActor;verticalLabelPosition=bottom;verticalAlign=top;html=1;strokeColor=#007FFF;fontColor=#FFFFFF;fillColor=#6666FF;" parent="1" vertex="1">
          <mxGeometry x="-70" y="-50" width="30" height="60" as="geometry" />
        </mxCell>
        <mxCell id="0_0dZdF44_EZMC4FOQOo-5" value="SFS_write" style="rounded=0;whiteSpace=wrap;html=1;strokeColor=#FFFFFF;fontColor=#FFFFFF;fillColor=#182E3E;" parent="1" vertex="1">
          <mxGeometry x="30" y="30" width="120" height="60" as="geometry" />
        </mxCell>
        <mxCell id="0_0dZdF44_EZMC4FOQOo-6" value="" style="html=1;points=[];perimeter=orthogonalPerimeter;fillColor=strokeColor;strokeColor=#6666FF;fontColor=#FFFFFF;" parent="1" vertex="1">
          <mxGeometry x="87.5" y="90" width="5" height="260" as="geometry" />
        </mxCell>
        <mxCell id="0_0dZdF44_EZMC4FOQOo-7" style="edgeStyle=orthogonalEdgeStyle;rounded=0;orthogonalLoop=1;jettySize=auto;html=1;exitX=0.5;exitY=0.5;exitDx=0;exitDy=0;exitPerimeter=0;strokeColor=#9933FF;entryX=0.233;entryY=0.154;entryDx=0;entryDy=0;entryPerimeter=0;" parent="1" target="0_0dZdF44_EZMC4FOQOo-2" edge="1">
          <mxGeometry relative="1" as="geometry">
            <mxPoint x="87.5" y="130" as="sourcePoint" />
            <mxPoint x="170" y="150" as="targetPoint" />
          </mxGeometry>
        </mxCell>
        <mxCell id="0_0dZdF44_EZMC4FOQOo-8" value="&lt;font color=&quot;#9933ff&quot;&gt;查找文件&lt;br&gt;Inode&lt;/font&gt;" style="edgeLabel;html=1;align=center;verticalAlign=middle;resizable=0;points=[];fontColor=#FFFFFF;fontStyle=1" parent="0_0dZdF44_EZMC4FOQOo-7" vertex="1" connectable="0">
          <mxGeometry x="0.0638" y="-1" relative="1" as="geometry">
            <mxPoint as="offset" />
          </mxGeometry>
        </mxCell>
        <mxCell id="0_0dZdF44_EZMC4FOQOo-9" style="edgeStyle=orthogonalEdgeStyle;rounded=0;orthogonalLoop=1;jettySize=auto;html=1;exitX=0.5;exitY=0.5;exitDx=0;exitDy=0;exitPerimeter=0;strokeColor=#9933FF;entryX=0.367;entryY=0.419;entryDx=0;entryDy=0;entryPerimeter=0;" parent="1" edge="1">
          <mxGeometry relative="1" as="geometry">
            <mxPoint x="242.5" y="161.07999999999998" as="sourcePoint" />
            <mxPoint x="94.33500000000026" y="160.02000000000004" as="targetPoint" />
            <Array as="points">
              <mxPoint x="169" y="161" />
              <mxPoint x="169" y="160" />
            </Array>
          </mxGeometry>
        </mxCell>
        <mxCell id="0_0dZdF44_EZMC4FOQOo-10" value="&lt;font color=&quot;#9933ff&quot;&gt;返回Inode号&lt;/font&gt;" style="edgeLabel;html=1;align=center;verticalAlign=middle;resizable=0;points=[];fontColor=#FFFFFF;fontStyle=1" parent="0_0dZdF44_EZMC4FOQOo-9" vertex="1" connectable="0">
          <mxGeometry x="0.0638" y="-1" relative="1" as="geometry">
            <mxPoint y="1" as="offset" />
          </mxGeometry>
        </mxCell>
        <mxCell id="0_0dZdF44_EZMC4FOQOo-11" style="edgeStyle=orthogonalEdgeStyle;rounded=0;orthogonalLoop=1;jettySize=auto;html=1;exitX=0.5;exitY=0;exitDx=0;exitDy=0;strokeColor=#3333FF;" parent="1" source="0_0dZdF44_EZMC4FOQOo-12" target="0_0dZdF44_EZMC4FOQOo-4" edge="1">
          <mxGeometry relative="1" as="geometry" />
        </mxCell>
        <mxCell id="0_0dZdF44_EZMC4FOQOo-12" value="" style="ellipse;html=1;shape=endState;fillColor=strokeColor;strokeColor=#B266FF;fontColor=#FFFFFF;" parent="1" vertex="1">
          <mxGeometry x="-70" y="45" width="30" height="30" as="geometry" />
        </mxCell>
        <mxCell id="0_0dZdF44_EZMC4FOQOo-13" value="" style="edgeStyle=orthogonalEdgeStyle;rounded=0;orthogonalLoop=1;jettySize=auto;html=1;exitX=0.5;exitY=0.5;exitDx=0;exitDy=0;exitPerimeter=0;strokeColor=#B266FF;" parent="1" source="0_0dZdF44_EZMC4FOQOo-4" target="0_0dZdF44_EZMC4FOQOo-15" edge="1">
          <mxGeometry relative="1" as="geometry">
            <mxPoint y="-20.166666666666515" as="targetPoint" />
            <mxPoint x="-55" y="-20" as="sourcePoint" />
          </mxGeometry>
        </mxCell>
        <mxCell id="0_0dZdF44_EZMC4FOQOo-14" style="edgeStyle=orthogonalEdgeStyle;rounded=0;orthogonalLoop=1;jettySize=auto;html=1;exitX=0.5;exitY=1;exitDx=0;exitDy=0;entryX=0;entryY=0.5;entryDx=0;entryDy=0;strokeColor=#B266FF;" parent="1" source="0_0dZdF44_EZMC4FOQOo-15" target="0_0dZdF44_EZMC4FOQOo-5" edge="1">
          <mxGeometry relative="1" as="geometry" />
        </mxCell>
        <mxCell id="0_0dZdF44_EZMC4FOQOo-15" value="" style="ellipse;fillColor=strokeColor;html=1;strokeColor=#B266FF;fontColor=#FFFFFF;" parent="1" vertex="1">
          <mxGeometry x="-20" y="-35" width="30" height="30" as="geometry" />
        </mxCell>
        <mxCell id="0_0dZdF44_EZMC4FOQOo-16" value="" style="endArrow=none;startArrow=none;endFill=0;startFill=0;endSize=8;html=1;verticalAlign=bottom;labelBackgroundColor=none;strokeWidth=3;rounded=0;strokeColor=#CC99FF;" parent="1" edge="1">
          <mxGeometry width="160" relative="1" as="geometry">
            <mxPoint x="93" y="260" as="sourcePoint" />
            <mxPoint x="150.5" y="260" as="targetPoint" />
          </mxGeometry>
        </mxCell>
        <mxCell id="0_0dZdF44_EZMC4FOQOo-17" value="" style="endArrow=none;startArrow=none;endFill=0;startFill=0;endSize=8;html=1;verticalAlign=bottom;labelBackgroundColor=none;strokeWidth=3;rounded=0;strokeColor=#CC99FF;" parent="1" edge="1">
          <mxGeometry width="160" relative="1" as="geometry">
            <mxPoint x="150.5" y="260" as="sourcePoint" />
            <mxPoint x="150.5" y="290" as="targetPoint" />
          </mxGeometry>
        </mxCell>
        <mxCell id="0_0dZdF44_EZMC4FOQOo-18" style="edgeStyle=orthogonalEdgeStyle;rounded=0;orthogonalLoop=1;jettySize=auto;html=1;strokeColor=#CC99FF;strokeWidth=2;entryX=0.9;entryY=0.653;entryDx=0;entryDy=0;entryPerimeter=0;" parent="1" edge="1">
          <mxGeometry relative="1" as="geometry">
            <mxPoint x="150.5" y="290" as="sourcePoint" />
            <mxPoint x="92.50000000000023" y="289.77999999999975" as="targetPoint" />
          </mxGeometry>
        </mxCell>
        <mxCell id="0_0dZdF44_EZMC4FOQOo-19" value="&lt;font color=&quot;#b266ff&quot;&gt;&lt;b&gt;写入数据&lt;br&gt;到磁盘&lt;/b&gt;&lt;br&gt;&lt;/font&gt;" style="edgeLabel;html=1;align=center;verticalAlign=middle;resizable=0;points=[];fontColor=#FFFFFF;" parent="0_0dZdF44_EZMC4FOQOo-18" vertex="1" connectable="0">
          <mxGeometry x="-0.4391" y="1" relative="1" as="geometry">
            <mxPoint x="45" y="-16" as="offset" />
          </mxGeometry>
        </mxCell>
        <mxCell id="0_0dZdF44_EZMC4FOQOo-20" value="HelpAllocDataBlock" style="rounded=0;whiteSpace=wrap;html=1;strokeColor=#FFFFFF;fontColor=#FFFFFF;fillColor=#182E3E;" parent="1" vertex="1">
          <mxGeometry x="340" y="30" width="130" height="60" as="geometry" />
        </mxCell>
        <mxCell id="0_0dZdF44_EZMC4FOQOo-21" value="" style="html=1;points=[];perimeter=orthogonalPerimeter;fillColor=strokeColor;strokeColor=#6666FF;fontColor=#FFFFFF;" parent="1" vertex="1">
          <mxGeometry x="397.5" y="90" width="5" height="260" as="geometry" />
        </mxCell>
        <mxCell id="0_0dZdF44_EZMC4FOQOo-22" style="edgeStyle=orthogonalEdgeStyle;rounded=0;orthogonalLoop=1;jettySize=auto;html=1;exitX=0.5;exitY=0.5;exitDx=0;exitDy=0;exitPerimeter=0;strokeColor=#9933FF;entryX=0.233;entryY=0.851;entryDx=0;entryDy=0;entryPerimeter=0;" parent="1" edge="1">
          <mxGeometry relative="1" as="geometry">
            <mxPoint x="91.34" y="200" as="sourcePoint" />
            <mxPoint x="397.505" y="201.26000000000022" as="targetPoint" />
            <Array as="points">
              <mxPoint x="91.68" y="201" />
            </Array>
          </mxGeometry>
        </mxCell>
        <mxCell id="0_0dZdF44_EZMC4FOQOo-23" value="&lt;font color=&quot;#9933ff&quot;&gt;申请一块可用数据块用作写入数据（由链表管理）&lt;/font&gt;" style="edgeLabel;html=1;align=center;verticalAlign=middle;resizable=0;points=[];fontColor=#FFFFFF;fontStyle=1;labelBackgroundColor=default;" parent="0_0dZdF44_EZMC4FOQOo-22" vertex="1" connectable="0">
          <mxGeometry x="0.0638" y="-1" relative="1" as="geometry">
            <mxPoint x="-4" y="-2" as="offset" />
          </mxGeometry>
        </mxCell>
        <mxCell id="0_0dZdF44_EZMC4FOQOo-24" style="edgeStyle=orthogonalEdgeStyle;rounded=0;orthogonalLoop=1;jettySize=auto;html=1;exitX=0.5;exitY=0.5;exitDx=0;exitDy=0;exitPerimeter=0;strokeColor=#9933FF;entryX=0.5;entryY=1;entryDx=0;entryDy=0;" parent="1" target="0_0dZdF44_EZMC4FOQOo-12" edge="1">
          <mxGeometry relative="1" as="geometry">
            <mxPoint x="87.5" y="331.08" as="sourcePoint" />
            <mxPoint x="-60.664999999999736" y="330.02000000000004" as="targetPoint" />
            <Array as="points">
              <mxPoint x="-55" y="331" />
            </Array>
          </mxGeometry>
        </mxCell>
        <mxCell id="0_0dZdF44_EZMC4FOQOo-25" value="&lt;font color=&quot;#9933ff&quot;&gt;将更新后的&lt;br&gt;文件 Inode&amp;nbsp;&lt;br&gt;写回磁盘&lt;br&gt;&lt;/font&gt;" style="edgeLabel;html=1;align=center;verticalAlign=middle;resizable=0;points=[];fontColor=#FFFFFF;fontStyle=1" parent="0_0dZdF44_EZMC4FOQOo-24" vertex="1" connectable="0">
          <mxGeometry x="0.0638" y="-1" relative="1" as="geometry">
            <mxPoint x="-1" y="-62" as="offset" />
          </mxGeometry>
        </mxCell>
        <mxCell id="0_0dZdF44_EZMC4FOQOo-26" style="edgeStyle=orthogonalEdgeStyle;rounded=0;orthogonalLoop=1;jettySize=auto;html=1;exitX=0.5;exitY=0.5;exitDx=0;exitDy=0;exitPerimeter=0;strokeColor=#9933FF;entryX=0.7;entryY=0.575;entryDx=0;entryDy=0;entryPerimeter=0;" parent="1" target="0_0dZdF44_EZMC4FOQOo-6" edge="1">
          <mxGeometry relative="1" as="geometry">
            <mxPoint x="397.5" y="241.07999999999998" as="sourcePoint" />
            <mxPoint x="249.33500000000026" y="240.02000000000004" as="targetPoint" />
            <Array as="points">
              <mxPoint x="398" y="240" />
              <mxPoint x="324" y="240" />
            </Array>
          </mxGeometry>
        </mxCell>
        <mxCell id="0_0dZdF44_EZMC4FOQOo-27" value="&lt;font color=&quot;#9933ff&quot;&gt;返回可用磁盘地址块号&lt;/font&gt;" style="edgeLabel;html=1;align=center;verticalAlign=middle;resizable=0;points=[];fontColor=#FFFFFF;fontStyle=1" parent="0_0dZdF44_EZMC4FOQOo-26" vertex="1" connectable="0">
          <mxGeometry x="0.0638" y="-1" relative="1" as="geometry">
            <mxPoint y="1" as="offset" />
          </mxGeometry>
        </mxCell>
        <mxCell id="g2V7io4uTAFBrgqThUgl-1" value="HelpTidyAddr" style="rounded=0;whiteSpace=wrap;html=1;strokeColor=#FFFFFF;fontColor=#FFFFFF;fillColor=#182E3E;" parent="1" vertex="1">
          <mxGeometry x="500" y="30" width="130" height="60" as="geometry" />
        </mxCell>
        <mxCell id="g2V7io4uTAFBrgqThUgl-2" value="" style="html=1;points=[];perimeter=orthogonalPerimeter;fillColor=strokeColor;strokeColor=#6666FF;fontColor=#FFFFFF;" parent="1" vertex="1">
          <mxGeometry x="557.5" y="90" width="5" height="260" as="geometry" />
        </mxCell>
        <mxCell id="g2V7io4uTAFBrgqThUgl-3" style="edgeStyle=orthogonalEdgeStyle;rounded=0;orthogonalLoop=1;jettySize=auto;html=1;exitX=0.5;exitY=0.5;exitDx=0;exitDy=0;exitPerimeter=0;strokeColor=#9933FF;entryX=-0.02;entryY=0.846;entryDx=0;entryDy=0;entryPerimeter=0;" parent="1" target="g2V7io4uTAFBrgqThUgl-2" edge="1">
          <mxGeometry relative="1" as="geometry">
            <mxPoint x="92.54" y="310" as="sourcePoint" />
            <mxPoint x="398.705" y="311.2600000000002" as="targetPoint" />
            <Array as="points">
              <mxPoint x="93" y="311" />
            </Array>
          </mxGeometry>
        </mxCell>
        <mxCell id="g2V7io4uTAFBrgqThUgl-4" value="&lt;font color=&quot;#9933ff&quot;&gt;将链表转换为&lt;br&gt;间接地址树&lt;br&gt;填充文件 Inode 结构&lt;br&gt;&lt;/font&gt;" style="edgeLabel;html=1;align=center;verticalAlign=middle;resizable=0;points=[];fontColor=#FFFFFF;fontStyle=1" parent="g2V7io4uTAFBrgqThUgl-3" vertex="1" connectable="0">
          <mxGeometry x="0.0638" y="-1" relative="1" as="geometry">
            <mxPoint x="131" y="-2" as="offset" />
          </mxGeometry>
        </mxCell>
      </root>
    </mxGraphModel>
  </diagram>
</mxfile>
